<?xml version="1.0" encoding="UTF-8"?>
<svg version="1.1" xmlns="http://www.w3.org/2000/svg" width="1408" height="768">
<path d="M0 0 C464.64 0 929.28 0 1408 0 C1408 253.44 1408 506.88 1408 768 C943.36 768 478.72 768 0 768 C0 514.56 0 261.12 0 0 Z " fill="#FEFEFE" transform="translate(0,0)"/>
<path d="M0 0 C445.17 0 890.34 0 1349 0 C1351 4 1351 4 1351 7 C1351.66 7 1352.32 7 1353 7 C1353.144375 6.030625 1353.28875 5.06125 1353.4375 4.0625 C1354 1 1354 1 1355 0 C1356.65738443 -0.09346915 1358.31874644 -0.11744977 1359.97875977 -0.11352539 C1361.03978409 -0.11344986 1362.10080841 -0.11337433 1363.19398499 -0.11329651 C1364.348134 -0.10813522 1365.50228302 -0.10297394 1366.69140625 -0.09765625 C1367.86638168 -0.0962413 1369.04135712 -0.09482635 1370.25193787 -0.09336853 C1374.02215064 -0.08774992 1377.79230504 -0.07519426 1381.5625 -0.0625 C1384.11132727 -0.0574874 1386.66015547 -0.05292408 1389.20898438 -0.04882812 C1395.47269709 -0.03862331 1401.73628284 -0.01905152 1408 0 C1408 12.87 1408 25.74 1408 39 C943.36 39 478.72 39 0 39 C0 26.13 0 13.26 0 0 Z " fill="#219C94" transform="translate(0,729)"/>
<path d="M0 0 C-0.54590015 8.5878988 -1.49408408 17.00847545 -2.875 25.5 C-3.23519422 27.78112079 -3.59455821 30.06237283 -3.953125 32.34375 C-4.13037109 33.46523437 -4.30761719 34.58671875 -4.49023438 35.7421875 C-6.40187843 47.95913111 -8.13219926 60.18751988 -9.35400391 72.49414062 C-9.89697749 77.79395497 -9.89697749 77.79395497 -11 80 C-15.04135587 78.40069566 -17.67907152 75.51339591 -20.625 72.4375 C-23.96402902 68.77285984 -23.96402902 68.77285984 -28 66 C-28.2578125 66.58394531 -28.515625 67.16789062 -28.78125 67.76953125 C-30.09698364 70.17749249 -31.54158592 71.77472693 -33.5 73.6875 C-34.1084375 74.28949219 -34.716875 74.89148438 -35.34375 75.51171875 C-37 77 -37 77 -39 78 C-38.44150026 82.70836487 -37.09017578 86.16772022 -34.9375 90.375 C-13.5591521 134.46574057 -10.8493427 187.6199089 -26.64453125 233.890625 C-32.81198942 251.25075778 -41.03329039 268.14321226 -52 283 C-52.3909082 283.53077148 -52.78181641 284.06154297 -53.18457031 284.60839844 C-63.5289115 298.52638499 -75.13286098 311.51802379 -89 322 C-89.56315918 322.42700195 -90.12631836 322.85400391 -90.70654297 323.29394531 C-110.59245247 338.17175264 -133.15248802 348.5629473 -157.125 354.8125 C-157.86322998 355.0077124 -158.60145996 355.2029248 -159.36206055 355.40405273 C-167.57433656 357.40392427 -175.43101869 357.99188455 -184 359 C-184 340.52 -184 322.04 -184 303 C-175.09 301.02 -175.09 301.02 -166 299 C-136.02931373 289.74434689 -110.94309122 271.58738949 -94 245 C-93.29230469 243.89140625 -92.58460938 242.7828125 -91.85546875 241.640625 C-73.71447845 211.53282466 -68.15072268 174.51846649 -76.37060547 140.40087891 C-77.92118874 134.48604731 -79.8542631 128.7248964 -82 123 C-82.71942119 123.71942119 -83.43884237 124.43884237 -84.1800642 125.1800642 C-124.78670947 165.78670947 -165.39335473 206.39335473 -206 247 C-207.1242477 246.04082872 -208.24786546 245.08091907 -209.37121582 244.12069702 C-210.30988873 243.3189911 -210.30988873 243.3189911 -211.26752472 242.5010891 C-213.15269159 240.86770162 -214.95322978 239.17594355 -216.71875 237.4140625 C-217.34136719 236.79273438 -217.96398437 236.17140625 -218.60546875 235.53125 C-219.54326172 234.58765625 -219.54326172 234.58765625 -220.5 233.625 C-221.12519531 233.00367188 -221.75039062 232.38234375 -222.39453125 231.7421875 C-223.32845703 230.80632812 -223.32845703 230.80632812 -224.28125 229.8515625 C-224.82845703 229.30322754 -225.37566406 228.75489258 -225.93945312 228.18994141 C-227.66862153 226.35218778 -229.30076947 224.4785516 -230.93774414 222.56005859 C-236.23180045 216.48401413 -242.00678793 210.86979459 -247.71484375 205.1875 C-248.93817223 203.96604016 -250.16127748 202.74435671 -251.38417053 201.52246094 C-254.57941761 198.3310039 -257.77765786 195.14256333 -260.9765625 191.95477295 C-264.24988433 188.69174138 -267.52032274 185.42582256 -270.79101562 182.16015625 C-277.19121509 175.77063203 -283.59458507 169.38429549 -290 163 C-288.69570241 160.11968122 -287.31488512 158.07142737 -285.06665039 155.85546875 C-284.18046776 154.97435425 -284.18046776 154.97435425 -283.27638245 154.07543945 C-282.6399028 153.45241943 -282.00342316 152.82939941 -281.34765625 152.1875 C-280.69171982 151.53676514 -280.03578339 150.88603027 -279.35997009 150.21557617 C-277.2655104 148.13890663 -275.16448998 146.06904494 -273.0625 144 C-270.96494687 141.93011273 -268.8688848 139.8587707 -266.77574158 137.78442383 C-265.47411739 136.49500221 -264.16982883 135.20826321 -262.86256409 133.92456055 C-259.99721078 131.0907144 -257.28411664 128.34195237 -255 125 C-250.25334043 125.87228725 -248.08782359 128.83462639 -245 132.3125 C-237.8971528 140.06991058 -230.61212279 147.64014931 -223.22192383 155.12313843 C-221.94791986 156.41711743 -220.67870479 157.71582874 -219.41430664 159.01919556 C-217.61748252 160.8699585 -215.80518504 162.70412976 -213.98828125 164.53515625 C-213.44399979 165.10208191 -212.89971832 165.66900757 -212.33894348 166.25311279 C-210.65289273 167.98823824 -210.65289273 167.98823824 -208 170 C-204.48822827 169.71750959 -202.76709855 168.14039007 -200.3391571 165.70664978 C-199.62857147 165.0016333 -198.91798584 164.29661682 -198.18586731 163.57023621 C-197.41643295 162.79158707 -196.6469986 162.01293793 -195.85424805 161.21069336 C-194.62665771 159.98616959 -194.62665771 159.98616959 -193.37426758 158.73690796 C-190.66276829 156.02842348 -187.96218445 153.30932584 -185.26171875 150.58984375 C-183.37906464 148.70413165 -181.49587652 146.8189676 -179.61201477 144.9344635 C-175.65858571 140.97734062 -171.71083507 137.014626 -167.7668457 133.0480957 C-162.72350899 127.97599163 -157.67104745 122.91308254 -152.61554241 117.85311031 C-148.7224499 113.95644702 -144.83269596 110.05645801 -140.94385719 106.15555 C-139.08286855 104.28888135 -137.22142219 102.4226689 -135.35950279 100.55692863 C-132.7483774 97.93888447 -130.14065382 95.31749974 -127.53393555 92.69506836 C-126.77057388 91.93058884 -126.00721222 91.16610931 -125.22071838 90.37846375 C-121.15314342 86.27858699 -117.25747523 82.09609171 -113.52419758 77.68845463 C-111.25861748 75.17872147 -108.59463733 73.16219778 -106 71 C-104.92021794 69.80338548 -103.86188411 68.58723307 -102.82006836 67.35742188 C-99.02401202 62.96977961 -94.99495294 58.86727307 -90.87890625 54.78125 C-89.76176491 53.66623108 -89.76176491 53.66623108 -88.62205505 52.52868652 C-86.27123255 50.18340699 -83.91693569 47.84165164 -81.5625 45.5 C-79.95614801 43.89867039 -78.35002603 42.29711002 -76.74414062 40.6953125 C-72.83208015 36.79420527 -68.91717048 32.8959758 -65 29 C-66.39360149 26.09569511 -67.70486326 24.06874166 -70.0390625 21.8359375 C-70.61914062 21.27132812 -71.19921875 20.70671875 -71.796875 20.125 C-72.40015625 19.5475 -73.0034375 18.97 -73.625 18.375 C-74.83001989 17.22082483 -76.03078487 16.06218537 -77.2265625 14.8984375 C-77.75846191 14.38974121 -78.29036133 13.88104492 -78.83837891 13.35693359 C-80 12 -80 12 -80 10 C-78.7123877 9.83918945 -77.42477539 9.67837891 -76.09814453 9.51269531 C-70.10652279 8.76299529 -64.11562645 8.0076091 -58.125 7.25 C-57.0517749 7.1143866 -55.9785498 6.97877319 -54.87280273 6.83905029 C-41.37400115 5.12850236 -27.89814592 3.3683816 -14.47705078 1.11816406 C-9.57058706 0.31040848 -4.97391792 -0.17763993 0 0 Z " fill="#209C94" transform="translate(457,202)"/>
<path d="M0 0 C2.61943118 0.01603585 5.23730554 0.00007841 7.85668945 -0.01904297 C23.97614949 -0.04123334 39.5341077 1.96527066 54.94458008 6.82861328 C56.02940674 7.16932861 57.1142334 7.51004395 58.23193359 7.86108398 C80.34561578 15.10987459 100.62842591 26.26308696 118.31958008 41.39111328 C116.93535303 44.49231555 115.32841677 46.65081529 112.95898438 49.07397461 C112.27454758 49.7776265 111.59011078 50.48127838 110.88493347 51.20625305 C110.14535904 51.95432724 109.40578461 52.70240143 108.64379883 53.47314453 C107.88162552 54.24671799 107.11945221 55.02029144 106.33418274 55.81730652 C104.72220869 57.44815323 103.10732147 59.07612489 101.48974609 60.70141602 C99.0127445 63.1979043 96.5578633 65.71488559 94.1027832 68.23291016 C92.53444493 69.81430165 90.96482596 71.39442425 89.39379883 72.97314453 C88.66029709 73.73133987 87.92679535 74.48953522 87.17106628 75.27070618 C86.477173 75.95859726 85.78327972 76.64648834 85.06835938 77.35522461 C84.16140572 78.27311516 84.16140572 78.27311516 83.23612976 79.20954895 C81.31958008 80.39111328 81.31958008 80.39111328 78.77424622 80.19462585 C75.44750007 79.10564584 72.79417817 77.2409341 69.94458008 75.26611328 C43.06878386 57.36203759 10.32867137 52.0307915 -21.36108398 57.84204102 C-45.5704472 63.01886822 -65.83280105 75.57549958 -83.68041992 92.39111328 C-84.35588867 93.00212891 -85.03135742 93.61314453 -85.72729492 94.24267578 C-107.98472857 115.16466341 -121.50772049 149.31476019 -122.77246094 179.59472656 C-122.87044249 184.85991509 -122.78458404 190.12653613 -122.68041992 195.39111328 C-122.66366211 196.41205078 -122.6469043 197.43298828 -122.62963867 198.48486328 C-120.94252475 232.03432876 -102.80092232 264.92530699 -78.49291992 287.39111328 C-54.13447923 308.33008483 -27.68211714 317.3910072 4.31958008 319.39111328 C4.31958008 337.87111328 4.31958008 356.35111328 4.31958008 375.39111328 C-2.80492212 375.39111328 -9.05524962 375.17682216 -15.99291992 374.20361328 C-16.9393335 374.07124268 -17.88574707 373.93887207 -18.86083984 373.80249023 C-48.95451754 369.35867629 -77.36388777 359.03145205 -101.68041992 340.39111328 C-102.5544043 339.72595703 -103.42838867 339.06080078 -104.32885742 338.37548828 C-110.36290251 333.65964997 -116.0858556 328.61783928 -121.68041992 323.39111328 C-122.5440918 322.59318359 -123.40776367 321.79525391 -124.29760742 320.97314453 C-158.88809629 287.83645882 -177.23150181 239.45899829 -179.03588867 192.21923828 C-179.3102725 178.70607235 -178.39684256 165.6287046 -175.68041992 152.39111328 C-175.50881348 151.53855957 -175.33720703 150.68600586 -175.16040039 149.80761719 C-171.25249195 130.87573904 -164.85457892 113.388988 -155.68041992 96.39111328 C-155.35428711 95.77896973 -155.0281543 95.16682617 -154.69213867 94.53613281 C-150.06695604 85.90998293 -144.73576189 78.07923496 -138.68041992 70.39111328 C-138.10291992 69.60865234 -137.52541992 68.82619141 -136.93041992 68.02001953 C-126.88824379 54.7275855 -114.31317383 42.92416221 -100.68041992 33.39111328 C-100.09583008 32.97812988 -99.51124023 32.56514648 -98.90893555 32.13964844 C-79.6446053 18.60241318 -58.79367348 8.82953671 -35.69680786 3.83024597 C-33.84315676 3.42655441 -31.99326095 3.00571986 -30.14379883 2.58325195 C-20.03947779 0.45429501 -10.31256583 -0.07473568 0 0 Z " fill="#173451" transform="translate(253.680419921875,186.60888671875)"/>
<path d="M0 0 C212.85 0 425.7 0 645 0 C647 4 647 4 647 7 C647.66 7 648.32 7 649 7 C649.144375 6.030625 649.28875 5.06125 649.4375 4.0625 C650 1 650 1 651 0 C652.65738443 -0.09346915 654.31874644 -0.11744977 655.97875977 -0.11352539 C657.03978409 -0.11344986 658.10080841 -0.11337433 659.19398499 -0.11329651 C660.348134 -0.10813522 661.50228302 -0.10297394 662.69140625 -0.09765625 C663.86638168 -0.0962413 665.04135712 -0.09482635 666.25193787 -0.09336853 C670.02215064 -0.08774992 673.79230504 -0.07519426 677.5625 -0.0625 C680.11132727 -0.0574874 682.66015547 -0.05292408 685.20898438 -0.04882812 C691.47269709 -0.03862331 697.73628284 -0.01905152 704 0 C704 12.87 704 25.74 704 39 C471.68 39 239.36 39 0 39 C0 26.13 0 13.26 0 0 Z " fill="#163352" transform="translate(704,729)"/>
<path d="M0 0 C2.05432497 1.40021154 3.69441148 2.76782067 5.35546875 4.60546875 C5.68546875 1.96546875 6.01546875 -0.67453125 6.35546875 -3.39453125 C13.28546875 -3.39453125 20.21546875 -3.39453125 27.35546875 -3.39453125 C27.35546875 22.67546875 27.35546875 48.74546875 27.35546875 75.60546875 C20.75546875 75.60546875 14.15546875 75.60546875 7.35546875 75.60546875 C7.02546875 72.30546875 6.69546875 69.00546875 6.35546875 65.60546875 C5.79859375 66.14816406 5.24171875 66.69085938 4.66796875 67.25 C-3.59421156 74.99579404 -9.39999777 77.11772215 -20.71118164 77.02563477 C-32.21807494 76.6040431 -38.66435051 70.69883542 -46.39453125 62.79296875 C-54.35027547 51.5223311 -54.59985846 38.90195755 -53.64453125 25.60546875 C-52.85322186 21.53587758 -51.62884306 18.23196964 -49.64453125 14.60546875 C-49.24363281 13.82300781 -48.84273437 13.04054688 -48.4296875 12.234375 C-44.13520336 4.85284139 -37.33001206 -0.73667551 -29.27734375 -3.5859375 C-18.55792596 -5.97187243 -9.58904726 -5.35664019 0 0 Z " fill="#1C3551" transform="translate(620.64453125,359.39453125)"/>
<path d="M0 0 C2.14022125 1.58622593 3.99636722 3.31817875 5.765625 5.30859375 C6.095625 2.00859375 6.425625 -1.29140625 6.765625 -4.69140625 C11.715625 -4.69140625 16.665625 -4.69140625 21.765625 -4.69140625 C21.765625 21.37859375 21.765625 47.44859375 21.765625 74.30859375 C16.815625 74.30859375 11.865625 74.30859375 6.765625 74.30859375 C6.435625 71.00859375 6.105625 67.70859375 5.765625 64.30859375 C4.651875 65.38109375 3.538125 66.45359375 2.390625 67.55859375 C-5.66356785 74.48829196 -13.13952594 75.95371731 -23.6796875 75.625 C-33.61571765 74.74058413 -40.59783387 70.3209837 -47.421875 63.18359375 C-56.53195865 52.05734404 -57.28178187 37.98047173 -56.234375 24.30859375 C-54.18262821 13.61726256 -47.12135178 4.45048215 -38.234375 -1.69140625 C-26.30834152 -8.21745461 -11.20987135 -7.43646978 0 0 Z " fill="#1A334D" transform="translate(1003.234375,360.69140625)"/>
<path d="M0 0 C6.93 0 13.86 0 21 0 C21.33 19.14 21.66 38.28 22 58 C26.95 51.565 26.95 51.565 32 45 C33.75277439 42.83939052 35.51808632 40.68865402 37.3125 38.5625 C38.09238281 37.63566406 38.87226562 36.70882812 39.67578125 35.75390625 C40.82626953 34.39072266 40.82626953 34.39072266 42 33 C42.65742187 31.90300781 43.31484375 30.80601562 43.9921875 29.67578125 C45.85741912 27.43496558 46.81566847 27.03186971 49.73803711 26.52661133 C53.11580851 26.40851102 56.43604379 26.47745738 59.8125 26.625 C61.56723633 26.66560547 61.56723633 26.66560547 63.35742188 26.70703125 C66.24016135 26.77762895 69.11913571 26.87619426 72 27 C68.45620298 31.86570786 64.81958866 36.43554683 60.6875 40.8125 C53.2549887 48.78562696 46.45089545 57.21553128 40 66 C40.83402344 66.95519531 41.66804687 67.91039062 42.52734375 68.89453125 C48.36055285 75.5906308 54.13761172 82.31284763 59.72265625 89.21875 C62.93843964 93.14608752 66.2360645 97.00306753 69.54736328 100.85009766 C73 104.89157532 73 104.89157532 73 106 C69.00126877 106.26342993 65.00478186 106.42186385 61 106.5625 C59.87464844 106.63791016 58.74929688 106.71332031 57.58984375 106.79101562 C49.38702464 107.00687929 49.38702464 107.00687929 45.65722656 104.29931641 C43.55118755 101.97553438 41.77276822 99.58593564 40 97 C38.76683703 95.37928541 37.53247143 93.75948514 36.296875 92.140625 C35.10993956 90.51379463 33.92763389 88.88357621 32.75 87.25 C31.55820408 85.60871208 30.36552104 83.9680679 29.171875 82.328125 C28.6572168 81.6155957 28.14255859 80.90306641 27.61230469 80.16894531 C25.80177536 77.73333923 23.8958433 75.36980413 22 73 C21.67 83.89 21.34 94.78 21 106 C14.07 106 7.14 106 0 106 C0 71.02 0 36.04 0 0 Z " fill="#1E3752" transform="translate(741,329)"/>
<path d="M0 0 C8.49190983 5.78682565 12.78787521 13.09703857 15.8125 22.8125 C15.8125 28.7525 15.8125 34.6925 15.8125 40.8125 C-3.9875 40.8125 -23.7875 40.8125 -44.1875 40.8125 C-40.86068487 52.65819948 -40.86068487 52.65819948 -32.875 60.125 C-26.20459115 63.17862056 -17.46219544 63.3185771 -10.58203125 60.89453125 C-7.06472711 58.85541872 -5.45349417 57.30885864 -3.49609375 53.65625 C-1.1875 50.8125 -1.1875 50.8125 2.703125 50.2265625 C4.15740937 50.2662248 5.61111628 50.33749299 7.0625 50.4375 C7.80757812 50.46457031 8.55265625 50.49164063 9.3203125 50.51953125 C11.15228993 50.58999192 12.98277151 50.69761007 14.8125 50.8125 C11.31673915 62.09280238 5.07846418 68.37979784 -5.234375 73.91015625 C-13.57565251 77.38568855 -25.58018013 77.233327 -34.1875 74.6875 C-44.35254684 70.46841685 -52.10569828 63.4730294 -57.125 53.6875 C-59.44147868 47.70135213 -59.6500122 41.9662467 -59.6875 35.625 C-59.69386475 34.69864746 -59.70022949 33.77229492 -59.70678711 32.81787109 C-59.50300376 21.78600556 -55.89241646 12.91459419 -48.3359375 4.83203125 C-35.17825285 -7.460706 -15.51245648 -8.76276167 0 0 Z " fill="#1B334D" transform="translate(1258.1875,360.1875)"/>
<path d="M0 0 C4.83969663 3.42655524 7.95851861 9.59852243 10.07421875 15.0078125 C10.07421875 16.9878125 10.07421875 18.9678125 10.07421875 21.0078125 C3.80421875 21.0078125 -2.46578125 21.0078125 -8.92578125 21.0078125 C-9.91578125 18.6978125 -10.90578125 16.3878125 -11.92578125 14.0078125 C-16.58742943 10.56707217 -21.33432652 10.28832384 -26.92578125 11.0078125 C-30.05585542 11.7662183 -30.05585542 11.7662183 -31.92578125 14.0078125 C-32.34499129 16.80438475 -32.15973105 19.15362496 -31.92578125 22.0078125 C-25.33194193 25.30473216 -18.69806809 27.29731061 -11.57470703 29.08081055 C-4.47848706 30.92311325 2.20136184 33.21274723 7.01171875 39.0078125 C7.57761719 39.6678125 8.14351562 40.3278125 8.7265625 41.0078125 C11.90468107 45.7243247 11.63793837 51.52362587 11.07421875 57.0078125 C9.58081298 62.63057518 6.95020775 67.17584848 2.296875 70.72265625 C-8.34621262 76.87656807 -21.57085719 77.96737045 -33.36328125 74.8203125 C-42.59279829 71.52952284 -48.78104522 66.24903922 -53.80078125 57.8828125 C-54.94392029 54.96145718 -55.01932433 53.09473409 -54.92578125 50.0078125 C-51.65541397 49.86271088 -48.38587118 49.77381877 -45.11328125 49.6953125 C-44.18451172 49.65341797 -43.25574219 49.61152344 -42.29882812 49.56835938 C-39.7496709 49.52234571 -37.43114176 49.53002463 -34.92578125 50.0078125 C-32.73989863 52.45743964 -31.92578125 53.73273021 -31.92578125 57.0078125 C-25.11383946 59.76941052 -19.64647922 61.15784642 -12.48828125 58.9453125 C-9.59504221 57.15247945 -9.59504221 57.15247945 -8.86328125 53.5078125 C-8.59133567 50.15256941 -8.59133567 50.15256941 -10.07788086 48.40356445 C-12.46957826 46.59707297 -14.6677863 45.97978381 -17.5546875 45.17578125 C-18.67294922 44.85158203 -19.79121094 44.52738281 -20.94335938 44.19335938 C-23.27825109 43.53598766 -25.61416901 42.88224839 -27.95117188 42.23242188 C-36.56903858 39.72442064 -44.38749786 36.92976518 -50.51953125 30.1328125 C-52.22080154 26.35221187 -52.51762334 23.07947831 -52.42578125 19.0078125 C-52.44125 18.32203125 -52.45671875 17.63625 -52.47265625 16.9296875 C-52.42689543 10.93502006 -50.24218442 7.60080112 -46.35546875 3.25 C-33.36573772 -8.1731303 -14.91838214 -7.68614415 0 0 Z " fill="#1A334E" transform="translate(715.92578125,359.9921875)"/>
<path d="M0 0 C4.95 0 9.9 0 15 0 C15.33 19.8 15.66 39.6 16 60 C25.40441114 49.8760114 25.40441114 49.8760114 34.5 39.5 C34.9846875 38.9328125 35.469375 38.365625 35.96875 37.78125 C36.443125 37.224375 36.9175 36.6675 37.40625 36.09375 C37.8590332 35.57256592 38.31181641 35.05138184 38.77832031 34.5144043 C40.18595317 32.84452514 40.18595317 32.84452514 41.703125 30.11328125 C44.88233354 27.18819312 47.25636017 27.484377 51.4609375 27.56054688 C52.84152344 27.62338867 52.84152344 27.62338867 54.25 27.6875 C55.18585938 27.71005859 56.12171875 27.73261719 57.0859375 27.75585938 C59.39225674 27.81469405 61.69530838 27.89682854 64 28 C62.28974534 31.66434951 60.24002076 33.9345589 57.3125 36.75 C53.62458589 40.30599806 50.22018252 43.99895559 46.87133789 47.86816406 C43.68903386 51.4934581 40.37261969 54.99172791 37.0625 58.5 C36.03672852 59.59054687 36.03672852 59.59054687 34.99023438 60.703125 C33.32805493 62.46991714 31.66463361 64.23552048 30 66 C30.38671875 66.44730469 30.7734375 66.89460938 31.171875 67.35546875 C34.18441246 70.85269664 37.127466 74.3861669 40 78 C44.40080864 83.41695461 49.11431997 88.49180117 53.95117188 93.52148438 C57.99977594 97.77274894 61.57417181 102.2334609 65 107 C48.54713528 108.88585371 48.54713528 108.88585371 43.11816406 105.99951172 C39.87617837 103.36201501 37.48605647 100.09072026 35.14404297 96.65478516 C33.37731305 94.09932306 31.36771696 91.75604129 29.375 89.375 C28.74335937 88.57835937 28.11171875 87.78171875 27.4609375 86.9609375 C23.77466376 82.52570655 19.85801233 78.28668037 16 74 C15.67 84.89 15.34 95.78 15 107 C9.72 107 4.44 107 -1 107 C-1.02312041 93.19659053 -1.04091354 79.39318563 -1.05181217 65.58976078 C-1.05704166 59.18100872 -1.0641405 52.77226985 -1.07543945 46.36352539 C-1.08626599 40.18440559 -1.09227634 34.00529852 -1.09487724 27.82616997 C-1.09673192 25.4629439 -1.10035332 23.09971856 -1.10573006 20.73649788 C-1.11293738 17.43898104 -1.11399107 14.14151753 -1.11352539 10.84399414 C-1.11712067 9.85641113 -1.12071594 8.86882812 -1.12442017 7.85131836 C-1.1230455 6.95804337 -1.12167084 6.06476837 -1.12025452 5.14442444 C-1.12117631 4.36366578 -1.1220981 3.58290712 -1.12304783 2.77848911 C-1 1 -1 1 0 0 Z " fill="#1F3852" transform="translate(1129,328)"/>
<path d="M0 0 C24.75 0 49.5 0 75 0 C75 5.61 75 11.22 75 17 C66.09 17 57.18 17 48 17 C48 45.05 48 73.1 48 102 C41.4 102 34.8 102 28 102 C28 73.95 28 45.9 28 17 C18.76 17 9.52 17 0 17 C0 11.39 0 5.78 0 0 Z " fill="#1C3651" transform="translate(488,333)"/>
<path d="M0 0 C5.5849526 4.94230052 8.9690562 11.5528425 9.875 18.875 C4.42523755 19.39926456 -0.69205705 19.67888133 -6.125 18.875 C-8.51365406 16.80714521 -9.52522531 14.94601067 -10.94140625 12.14453125 C-12.3720912 9.40120466 -14.07333454 7.81496239 -16.8828125 6.47265625 C-23.11561463 4.81129958 -29.83502328 4.60176042 -35.890625 6.9453125 C-42.37866123 10.87680465 -44.801824 15.90547201 -47.125 22.875 C-47.98556197 32.31625508 -48.66813333 42.77055679 -43.125 50.875 C-42.50625 51.82375 -41.8875 52.7725 -41.25 53.75 C-36.68900799 58.31099201 -32.06437155 59.32292271 -25.75 59.375 C-20.22324924 59.24483119 -16.10797869 58.89385862 -11.64453125 55.51953125 C-8.96168776 52.61599112 -7.60948815 49.5243667 -6.125 45.875 C-0.845 45.875 4.435 45.875 9.875 45.875 C7.79891919 56.25540403 2.53723501 62.40969155 -5.9921875 68.515625 C-14.64610459 74.03130842 -25.16697316 74.0506474 -35.125 72.875 C-44.73776153 70.49560358 -52.41629357 65.21646992 -57.9375 57 C-62.41395124 48.95742442 -63.62891646 41.58485858 -63.5625 32.4375 C-63.58248047 31.46490234 -63.60246094 30.49230469 -63.62304688 29.49023438 C-63.61613 19.1356674 -59.9348259 9.73473482 -53.125 1.875 C-37.53575029 -11.80211005 -16.80050989 -11.42434673 0 0 Z " fill="#1C344E" transform="translate(1104.125,363.125)"/>
<path d="M0 0 C23.43 0 46.86 0 71 0 C71 4.62 71 9.24 71 14 C61.76 14 52.52 14 43 14 C43 43.04 43 72.08 43 102 C38.05 102 33.1 102 28 102 C28 72.63 28 43.26 28 13 C18.76 13 9.52 13 0 13 C0 8.71 0 4.42 0 0 Z " fill="#1E3851" transform="translate(818,333)"/>
<path d="M0 0 C6.8326928 4.02844179 11.07315355 10.12462966 13.6875 17.5 C14.12839575 20.28483802 14.21297155 22.99598335 14.1875 25.8125 C14.18105469 26.55870605 14.17460938 27.30491211 14.16796875 28.07373047 C13.91965808 35.60309821 11.92455652 41.01494318 6.75 46.5859375 C0.44947004 52.43302022 -4.75727197 53.99340577 -13.3125 53.8046875 C-19.73388268 53.15251582 -23.72287053 50.40722263 -28.125 45.8125 C-34.69155982 37.64178059 -35.3368748 28.74374804 -34.3125 18.5 C-32.65984727 11.25980707 -29.19724909 6.00746739 -23.3125 1.5 C-16.48353605 -2.65093887 -7.38752029 -3.2338367 0 0 Z " fill="#FAFBFB" transform="translate(996.3125,369.5)"/>
<path d="M0 0 C4.95 0 9.9 0 15 0 C15.33 3.63 15.66 7.26 16 11 C16.825 9.9275 17.65 8.855 18.5 7.75 C22.49618034 3.14692311 26.55162852 0.30050094 32.734375 -0.23828125 C35.15753033 -0.24854886 37.58055375 -0.13441368 40 0 C40 4.62 40 9.24 40 14 C38.164375 14.2475 36.32875 14.495 34.4375 14.75 C29.00044964 15.68499335 25.34109455 16.56330015 21 20 C17.24621892 25.49249563 15.92192478 31.19161516 15.79467773 37.7902832 C15.77473251 38.71086014 15.75478729 39.63143707 15.73423767 40.57991028 C15.70916893 42.05049141 15.70916893 42.05049141 15.68359375 43.55078125 C15.66281265 44.56472458 15.64203156 45.57866791 15.62062073 46.62333679 C15.55538886 49.85299085 15.49636298 53.08272421 15.4375 56.3125 C15.39428971 58.50586748 15.35067462 60.69922703 15.30664062 62.89257812 C15.19973451 68.26163807 15.09839303 73.63077757 15 79 C10.05 79 5.1 79 0 79 C0 52.93 0 26.86 0 0 Z " fill="#193350" transform="translate(1289,356)"/>
<path d="M0 0 C5.54642565 3.63148553 8.47108899 8.27731767 10.3515625 14.578125 C11.86512536 22.11626159 10.66473585 28.93588009 6.75 35.5625 C1.797025 41.27422862 -3.06722869 44.01005851 -10.5625 45 C-16.2318859 44.32736099 -20.88098964 42.0290241 -24.86328125 37.8828125 C-30.43279724 30.48964968 -31.12283467 22.58915726 -30.25 13.5625 C-28.29984996 6.35745463 -23.16791725 1.83076788 -16.875 -1.8125 C-10.53934763 -3.32098866 -5.82790755 -3.13543163 0 0 Z " fill="#F8FAFA" transform="translate(617.25,374.4375)"/>
<path d="M0 0 C2.3821875 0.0309375 2.3821875 0.0309375 4.8125 0.0625 C4.8125 4.6825 4.8125 9.3025 4.8125 14.0625 C2.028125 14.43375 2.028125 14.43375 -0.8125 14.8125 C-7.50168958 15.94572741 -11.33596356 17.61046525 -15.5 23.125 C-17.68953397 26.93641098 -18.31665648 29.67323155 -18.39282227 33.99291992 C-18.41276749 34.99373093 -18.43271271 35.99454193 -18.45326233 37.02568054 C-18.46997482 38.10388565 -18.48668732 39.18209076 -18.50390625 40.29296875 C-18.52468735 41.39852615 -18.54546844 42.50408356 -18.56687927 43.6431427 C-18.63232332 47.1786979 -18.69123603 50.71432806 -18.75 54.25 C-18.7931901 56.64519008 -18.83680454 59.04037255 -18.88085938 61.43554688 C-18.98799952 67.31112088 -19.08928168 73.18677036 -19.1875 79.0625 C-24.1375 79.0625 -29.0875 79.0625 -34.1875 79.0625 C-34.1875 53.3225 -34.1875 27.5825 -34.1875 1.0625 C-29.5675 1.0625 -24.9475 1.0625 -20.1875 1.0625 C-20.1875 4.6925 -20.1875 8.3225 -20.1875 12.0625 C-19.5275 12.0625 -18.8675 12.0625 -18.1875 12.0625 C-18.0225 11.36125 -17.8575 10.66 -17.6875 9.9375 C-14.13862928 3.13549779 -7.44830087 -0.09673118 0 0 Z " fill="#19314C" transform="translate(934.1875,355.9375)"/>
<path d="M0 0 C232.32 0 464.64 0 704 0 C704 12.87 704 25.74 704 39 C698.47631363 27.95262726 702 14.35133821 702 2 C470.34 2 238.68 2 0 2 C0 1.34 0 0.68 0 0 Z " fill="#33908A" transform="translate(0,729)"/>
<path d="M0 0 C464.64 0 929.28 0 1408 0 C1408 0.33 1408 0.66 1408 1 C1390.51 1.33 1373.02 1.66 1355 2 C1354.34 3.98 1353.68 5.96 1353 8 C1352.34 8 1351.68 8 1351 8 C1350.34 5.69 1349.68 3.38 1349 1 C903.83 1 458.66 1 0 1 C0 0.67 0 0.34 0 0 Z " fill="#C2E5E6" transform="translate(0,728)"/>
<path d="M0 0 C212.85 0 425.7 0 645 0 C645 0.66 645 1.32 645 2 C536.47451599 2.29205177 427.94900162 2.57459963 113.48715723 3.12283063 C105.84989584 3.12410502 98.21263837 3.12782662 90.57537842 3.13256836 C80.61915407 3.13855392 70.66294339 3.13879052 60.70671844 3.13431931 C57.22694248 3.13288292 53.74717782 3.13347746 50.26740265 3.13615799 C33.82260094 3.14745821 17.41591808 3.1095577 1 2 C0.67 1.34 0.34 0.68 0 0 Z " fill="#192D40" transform="translate(704,729)"/>
<path d="M0 0 C26.54277456 39.81416184 28.03712189 93.384397 19.125 138.57421875 C13.86317981 161.8060945 3.13576487 184.85003929 -11 204 C-11.3909082 204.53077148 -11.78181641 205.06154297 -12.18457031 205.60839844 C-22.5289115 219.52638499 -34.13286098 232.51802379 -48 243 C-48.84473877 243.64050293 -48.84473877 243.64050293 -49.70654297 244.29394531 C-69.59245247 259.17175264 -92.15248802 269.5629473 -116.125 275.8125 C-116.86322998 276.0077124 -117.60145996 276.2029248 -118.36206055 276.40405273 C-126.57433656 278.40392427 -134.43101869 278.99188455 -143 280 C-143 261.52 -143 243.04 -143 224 C-140.03 224 -137.06 224 -134 224 C-133.67 224.66 -133.34 225.32 -133 226 C-135.64 226 -138.28 226 -141 226 C-140.67 242.5 -140.34 259 -140 276 C-133.05326282 276 -127.5862633 275.59963768 -121 274 C-119.90196045 273.73413086 -119.90196045 273.73413086 -118.78173828 273.46289062 C-116.2469044 272.84236088 -113.71678829 272.20524299 -111.1875 271.5625 C-109.9502417 271.25469604 -109.9502417 271.25469604 -108.68798828 270.94067383 C-104.29868417 269.7965912 -100.84831382 268.47493788 -97 266 C-94.1875 265.8125 -94.1875 265.8125 -92 266 C-92 265.34 -92 264.68 -92 264 C-88.7 263.34 -85.4 262.68 -82 262 C-82 261.34 -82 260.68 -82 260 C-80.3767313 259.3291288 -78.75132422 258.66342971 -77.125 258 C-76.22007812 257.62875 -75.31515625 257.2575 -74.3828125 256.875 C-72 256 -72 256 -70 256 C-70 255.01 -70 254.02 -70 253 C-68.35 252.67 -66.7 252.34 -65 252 C-65 251.34 -65 250.68 -65 250 C-62.09451118 247.95830515 -60.59857954 247 -57 247 C-57 246.34 -57 245.68 -57 245 C-55.68 245 -54.36 245 -53 245 C-53 244.01 -53 243.02 -53 242 C-52.4225 241.7525 -51.845 241.505 -51.25 241.25 C-48.90413377 240.08155783 -48.90413377 240.08155783 -47.0625 238.0625 C-45 236 -45 236 -42.3125 234.4375 C-39.69589558 233.15227904 -39.69589558 233.15227904 -39 230 C-38.34 230 -37.68 230 -37 230 C-37 229.34 -37 228.68 -37 228 C-36.01 228 -35.02 228 -34 228 C-33.938125 227.401875 -33.87625 226.80375 -33.8125 226.1875 C-32.68022678 223.1390721 -30.75467976 222.58394086 -28 221 C-27.67 220.01 -27.34 219.02 -27 218 C-26.01 218 -25.02 218 -24 218 C-24.33 217.01 -24.66 216.02 -25 215 C-23.7934375 214.38125 -23.7934375 214.38125 -22.5625 213.75 C-19.66346495 211.77017119 -19.64817515 211.24087575 -19 208 C-18.01 207.67 -17.02 207.34 -16 207 C-14.28432339 203.49705129 -14.28432339 203.49705129 -13 200 C-12.01 200 -11.02 200 -10 200 C-10 198.68 -10 197.36 -10 196 C-9.34 196 -8.68 196 -8 196 C-7.8453125 194.9171875 -7.8453125 194.9171875 -7.6875 193.8125 C-6.93206053 190.72206579 -5.84468685 188.58256159 -4 186 C-3.34 186 -2.68 186 -2 186 C-1.87753906 185.28457031 -1.75507813 184.56914062 -1.62890625 183.83203125 C-0.98864625 180.94887287 -0.06448444 178.41407527 1.0625 175.6875 C1.42472656 174.80449219 1.78695312 173.92148437 2.16015625 173.01171875 C2.43730469 172.34785156 2.71445312 171.68398438 3 171 C3.66 171 4.32 171 5 171 C5.33 169.35 5.66 167.7 6 166 C6.99 165.67 7.98 165.34 9 165 C9.12117187 164.13117188 9.24234375 163.26234375 9.3671875 162.3671875 C9.53476562 161.21476563 9.70234375 160.06234375 9.875 158.875 C10.03742188 157.73804688 10.19984375 156.60109375 10.3671875 155.4296875 C11 152 11 152 12.0703125 148.8203125 C13.20871268 145.86177855 13.20871268 145.86177855 13 142 C13.66 142 14.32 142 15 142 C15.76711986 137.72604647 16.29449408 133.46675671 16.71875 129.1484375 C16.99542419 127.03495407 17.45366973 125.05826751 18 123 C18.34060811 121.33480481 18.67558396 119.66842534 19 118 C19.66 118 20.32 118 21 118 C20.72394942 101.85180381 20.33051907 85.75835624 18.625 69.6875 C18.51115967 68.58245117 18.39731934 67.47740234 18.2800293 66.33886719 C17.54804961 59.93416703 16.30137857 53.85246452 14.65527344 47.62231445 C13.91625107 44.66484826 13.51254621 41.7907024 13.3125 38.75 C13.24675781 37.83734375 13.18101562 36.9246875 13.11328125 35.984375 C13.05720703 35.00210938 13.05720703 35.00210938 13 34 C12.34 34 11.68 34 11 34 C10.72736328 32.82244141 10.72736328 32.82244141 10.44921875 31.62109375 C8.81630707 24.63774062 8.81630707 24.63774062 6.3125 17.9375 C5 15 5 15 5 12 C4.01 11.67 3.02 11.34 2 11 C0.60955102 7.12137916 0 4.13537997 0 0 Z " fill="#3B948E" transform="translate(416,281)"/>
<path d="M0 0 C4.8819097 2.54434705 7.95226402 6.52807988 10.0625 11.5625 C10.5575 15.5225 10.5575 15.5225 11.0625 19.5625 C-3.7875 19.5625 -18.6375 19.5625 -33.9375 19.5625 C-32.87701773 12.13912409 -31.00890941 7.13477028 -25.3125 2.13671875 C-18.08445508 -2.83256213 -8.11298259 -3.04064084 0 0 Z " fill="#F8FAFB" transform="translate(1247.9375,369.4375)"/>
<path d="M0 0 C1.65 0.66 3.3 1.32 5 2 C5.495 7.445 5.495 7.445 6 13 C6.66 13 7.32 13 8 13 C9.75623315 18.37578685 10.39316874 23.30110255 10.625 28.9375 C10.66367187 29.71673828 10.70234375 30.49597656 10.7421875 31.29882812 C10.83544127 33.19887379 10.91875962 35.09940278 11 37 C9.3907561 34.05898268 8.50969212 31.35299261 7.81640625 28.078125 C7.61080078 27.13453125 7.40519531 26.1909375 7.19335938 25.21875 C6.77613207 23.25532739 6.3594563 21.29178748 5.94335938 19.328125 C4.70571783 13.65270957 3.18792165 8.3836906 1 3 C0.36089188 3.63910812 -0.27821625 4.27821625 -0.93669128 4.93669128 C-32.62446086 36.62446086 -64.31223043 68.31223043 -96 100 C-96 97 -96 97 -93.48046875 94.2578125 C-92.39004108 93.20599582 -91.29202402 92.1620041 -90.1875 91.125 C-86.45932307 87.60321213 -83.60899353 84.46080282 -81 80 C-80.34 80 -79.68 80 -79 80 C-79 79.01 -79 78.02 -79 77 C-78.34 77 -77.68 77 -77 77 C-77 76.34 -77 75.68 -77 75 C-76.34 75 -75.68 75 -75 75 C-75 74.34 -75 73.68 -75 73 C-74.34 73 -73.68 73 -73 73 C-73 72.34 -73 71.68 -73 71 C-72.21625 70.9175 -71.4325 70.835 -70.625 70.75 C-67.90805183 70.29519511 -67.90805183 70.29519511 -66.9375 68.25 C-66.628125 67.5075 -66.31875 66.765 -66 66 C-64.0625 63.25 -64.0625 63.25 -62 61 C-61.01 61 -60.02 61 -59 61 C-59 59.68 -59 58.36 -59 57 C-58.34 57 -57.68 57 -57 57 C-57 56.34 -57 55.68 -57 55 C-56.34 55 -55.68 55 -55 55 C-55 54.34 -55 53.68 -55 53 C-54.34 53 -53.68 53 -53 53 C-53 52.34 -53 51.68 -53 51 C-51.625 49.375 -51.625 49.375 -50 48 C-49.34 48 -48.68 48 -48 48 C-47.34 46.68 -46.68 45.36 -46 44 C-45.34 44 -44.68 44 -44 44 C-44 43.34 -44 42.68 -44 42 C-43.34 42 -42.68 42 -42 42 C-42 41.34 -42 40.68 -42 40 C-41.01 40 -40.02 40 -39 40 C-39 39.34 -39 38.68 -39 38 C-38.01 38 -37.02 38 -36 38 C-35.67 36.35 -35.34 34.7 -35 33 C-34.34 33 -33.68 33 -33 33 C-33 32.34 -33 31.68 -33 31 C-32.01 31 -31.02 31 -30 31 C-29.5978125 29.8553125 -29.5978125 29.8553125 -29.1875 28.6875 C-28.04865495 26.11011382 -27.18583329 24.73045136 -25 23 C-24.34 23 -23.68 23 -23 23 C-23 22.34 -23 21.68 -23 21 C-18.64705882 17 -18.64705882 17 -15 17 C-15 15.68 -15 14.36 -15 13 C-14.34 13 -13.68 13 -13 13 C-12.34 11.68 -11.68 10.36 -11 9 C-10.34 9 -9.68 9 -9 9 C-9 8.34 -9 7.68 -9 7 C-8.34 7 -7.68 7 -7 7 C-6.67 6.01 -6.34 5.02 -6 4 C-4.0625 2.9375 -4.0625 2.9375 -2 2 C-1.34 1.34 -0.68 0.68 0 0 Z " fill="#3C948E" transform="translate(374,322)"/>
<path d="M0 0 C17.44059121 26.16088682 24.17151091 61.45209977 24.1875 92.375 C24.19974609 93.64472656 24.21199219 94.91445313 24.22460938 96.22265625 C24.22750977 98.04216797 24.22750977 98.04216797 24.23046875 99.8984375 C24.23457764 100.99849121 24.23868652 102.09854492 24.24291992 103.23193359 C24 106 24 106 22 109 C20.8575048 105.57251441 20.72307464 102.66217244 20.53515625 99.05078125 C20.45643592 97.6295542 20.37765782 96.20833036 20.29882812 94.78710938 C20.18091534 92.57194697 20.06478168 90.35670696 19.95043945 88.14135742 C19.23691976 74.50399937 18.25745882 61.07007567 14.6640625 47.83984375 C13.59641929 43.27409895 13.26672762 38.67233204 13 34 C12.34 34 11.68 34 11 34 C10.81824219 33.21496094 10.63648438 32.42992187 10.44921875 31.62109375 C8.81630707 24.63774062 8.81630707 24.63774062 6.3125 17.9375 C5 15 5 15 5 12 C4.01 11.67 3.02 11.34 2 11 C0.60955102 7.12137916 0 4.13537997 0 0 Z " fill="#409B95" transform="translate(416,281)"/>
<path d="M0 0 C4.95 0 9.9 0 15 0 C15 4.29 15 8.58 15 13 C14.67 13 14.34 13 14 13 C14 9.37 14 5.74 14 2 C10.04 2 6.08 2 2 2 C2 26.75 2 51.5 2 77 C5.96 77 9.92 77 14 77 C14 62.48 14 47.96 14 33 C14.33 33 14.66 33 15 33 C15 48.18 15 63.36 15 79 C10.05 79 5.1 79 0 79 C0 52.93 0 26.86 0 0 Z " fill="#354555" transform="translate(1289,356)"/>
<path d="M0 0 C-0.54590015 8.5878988 -1.49408408 17.00847545 -2.875 25.5 C-3.23519422 27.78112079 -3.59455821 30.06237283 -3.953125 32.34375 C-4.13037109 33.46523437 -4.30761719 34.58671875 -4.49023438 35.7421875 C-6.40187843 47.95913111 -8.13219926 60.18751988 -9.35400391 72.49414062 C-9.89697749 77.79395497 -9.89697749 77.79395497 -11 80 C-14.45201639 78.52278578 -16.64961936 76.56205999 -19.25 73.875 C-19.95640625 73.15054688 -20.6628125 72.42609375 -21.390625 71.6796875 C-21.92171875 71.12539063 -22.4528125 70.57109375 -23 70 C-18.61031544 70 -17.23094261 72.12805101 -14 75 C-11.97376787 72.97376787 -12.39782231 68.98166734 -12.125 66.1875 C-11.38627507 59.09920687 -10.48894466 52.04878744 -9.4375 45 C-9.31068848 44.1339917 -9.18387695 43.2679834 -9.05322266 42.37573242 C-8.12439658 36.24879315 -8.12439658 36.24879315 -7 34 C-6.7675741 30.67594067 -6.60595829 27.35875381 -6.48242188 24.02929688 C-6.2803336 19.90745857 -5.62879331 16.76460399 -4 13 C-3.55450643 10.3383813 -3.55450643 10.3383813 -3.375 7.6875 C-3.30023438 6.80449219 -3.22546875 5.92148438 -3.1484375 5.01171875 C-3.09945313 4.34785156 -3.05046875 3.68398437 -3 3 C-4.010625 3.165 -5.02125 3.33 -6.0625 3.5 C-11.64887438 4.20938087 -15.99502688 4.75873246 -21 2 C-18.81347261 1.66034526 -16.62571975 1.32857523 -14.4375 1 C-13.21933594 0.814375 -12.00117188 0.62875 -10.74609375 0.4375 C-7.12372152 0.01444923 -3.64287954 -0.07501425 0 0 Z " fill="#37958E" transform="translate(457,202)"/>
<path d="M0 0 C0.495 1.485 0.495 1.485 1 3 C-0.40647707 5.07781926 -1.79631648 6.87223898 -3.4375 8.75 C-3.89326416 9.28278564 -4.34902832 9.81557129 -4.81860352 10.36450195 C-14.11052103 21.03684034 -14.11052103 21.03684034 -20 23 C-20.68221455 24.32544541 -21.34706306 25.65988972 -22 27 C-23.69921875 28.640625 -23.69921875 28.640625 -25.6875 30.25 C-29.16565637 33.19737847 -32.13665242 36.29726878 -35.08984375 39.76171875 C-40.73093907 46.37183657 -46.43950061 52.84301873 -53.1171875 58.42578125 C-54.42094864 59.51585539 -55.69570166 60.641219 -56.9453125 61.79296875 C-57.56148438 62.35628906 -58.17765625 62.91960937 -58.8125 63.5 C-59.35519531 64.0053125 -59.89789063 64.510625 -60.45703125 65.03125 C-60.96621094 65.3509375 -61.47539062 65.670625 -62 66 C-62.99 65.67 -63.98 65.34 -65 65 C-43.55 43.55 -22.1 22.1 0 0 Z " fill="#E6FDFC" transform="translate(339,360)"/>
<path d="M0 0 C0.99 0.495 0.99 0.495 2 1 C1.59046679 1.40768962 1.18093359 1.81537924 0.75899029 2.23542309 C-9.21198544 12.16220304 -19.17740076 22.09453602 -29.13667774 32.0330534 C-33.95306962 36.83913888 -38.77131598 41.64333708 -43.59399414 46.44311523 C-48.24749544 51.07453038 -52.89574193 55.7111752 -57.54080772 60.35105324 C-59.31448431 62.12103242 -61.08992126 63.88924936 -62.867136 65.65567589 C-65.35465514 68.12869286 -67.83586072 70.60788229 -70.31567383 73.08862305 C-71.05294708 73.81870575 -71.79022034 74.54878845 -72.54983521 75.30099487 C-75.92471186 78.68957187 -78.67450045 81.78201156 -81 86 C-83.52767599 87.92901589 -85.3869467 88.87738934 -88.5 89.5 C-92.10510042 88.77897992 -93.63424542 86.70371951 -96 84 C-95.505 83.01 -95.505 83.01 -95 82 C-94.2575 82.845625 -93.515 83.69125 -92.75 84.5625 C-91.8425 85.366875 -90.935 86.17125 -90 87 C-86.44571918 86.75039023 -84.70017399 85.07166598 -82.25408936 82.61485291 C-81.52497345 81.88986099 -80.79585754 81.16486908 -80.04464722 80.41790771 C-79.25486481 79.61733948 -78.4650824 78.81677124 -77.65136719 77.99194336 C-76.81197601 77.15299026 -75.97258484 76.31403717 -75.10775757 75.44966125 C-72.80920344 73.14937512 -70.51744354 70.84256855 -68.2285223 68.53270411 C-65.83425186 66.11968108 -63.43148421 63.71514989 -61.02960205 61.30970764 C-56.48336987 56.75415084 -51.94483916 52.19100067 -47.40902066 47.62507778 C-42.24445591 42.42698203 -37.07137095 37.23740132 -31.89755011 32.04852092 C-21.25552072 21.37513307 -10.624247 10.69109071 0 0 Z " fill="#338B85" transform="translate(339,285)"/>
<path d="M0 0 C0 0.33 0 0.66 0 1 C-1.65 1 -3.3 1 -5 1 C-5 19.48 -5 37.96 -5 57 C11.55868735 53.76098782 11.55868735 53.76098782 28 50 C29.32 50.33 30.64 50.66 32 51 C19.04002395 57.18544311 6.25809104 58 -8 58 C-8 39.19 -8 20.38 -8 1 C-5.29120665 -0.35439668 -2.99066732 -0.06501451 0 0 Z " fill="#E2FEFD" transform="translate(278,504)"/>
<path d="M0 0 C0.33 0 0.66 0 1 0 C1.37096774 5.56451613 1.37096774 5.56451613 -0.4375 7.6875 C-0.953125 8.120625 -1.46875 8.55375 -2 9 C-2.33 9.99 -2.66 10.98 -3 12 C-3.99 12.33 -4.98 12.66 -6 13 C-9.18393572 16.00981424 -11.63642059 19.258298 -13.5625 23.1875 C-15.22686854 26.44387323 -16.97747033 27.98498022 -20 30 C-20.66 30 -21.32 30 -22 30 C-22.20625 30.5775 -22.4125 31.155 -22.625 31.75 C-24.50145055 34.82055545 -26.98992391 36.0735513 -30 38 C-30.598125 38.66 -31.19625 39.32 -31.8125 40 C-35.19405413 43.09170663 -40.30837439 46 -45 46 C-45 46.66 -45 47.32 -45 48 C-46.24176695 48.70226141 -47.49385599 49.38629109 -48.75 50.0625 C-49.44609375 50.44535156 -50.1421875 50.82820313 -50.859375 51.22265625 C-53.39448846 52.14325402 -54.47163511 51.74322814 -57 51 C-56.39115967 50.65332275 -55.78231934 50.30664551 -55.1550293 49.94946289 C-38.71493391 40.69232737 -38.71493391 40.69232737 -24 29 C-23.49210937 28.53158691 -22.98421875 28.06317383 -22.4609375 27.58056641 C-13.84130462 19.58136326 -5.31270763 10.62541527 0 0 Z " fill="#3A9690" transform="translate(364,445)"/>
<path d="M0 0 C0.99 0.33 1.98 0.66 3 1 C-10.86 14.86 -24.72 28.72 -39 43 C-39.33 41.68 -39.66 40.36 -40 39 C-39.34 38.34 -38.68 37.68 -38 37 C-37.01 37 -36.02 37 -35 37 C-34.8453125 36.0409375 -34.8453125 36.0409375 -34.6875 35.0625 C-34.460625 34.381875 -34.23375 33.70125 -34 33 C-32.515 32.505 -32.515 32.505 -31 32 C-30.65597362 30.66938558 -30.32428249 29.33556346 -30 28 C-28.44140625 26.078125 -28.44140625 26.078125 -26.5625 24.25 C-25.94503906 23.63640625 -25.32757813 23.0228125 -24.69140625 22.390625 C-23 21 -23 21 -21 21 C-20.65582031 20.16662109 -20.65582031 20.16662109 -20.3046875 19.31640625 C-18.63977018 16.36043029 -16.54167129 14.31473006 -14.125 11.9375 C-13.26132812 11.08027344 -12.39765625 10.22304688 -11.5078125 9.33984375 C-9.41038522 7.38289836 -7.31793142 5.67816266 -5 4 C-4.154375 3.2575 -3.30875 2.515 -2.4375 1.75 C-1.633125 1.1725 -0.82875 0.595 0 0 Z " fill="#D7F5F4" transform="translate(326,295)"/>
<path d="M0 0 C2 1 2 1 2.62471008 2.85215759 C3.99245797 9.72225261 4.27687938 16.32342706 4.23046875 23.31640625 C4.22978142 25.02291603 4.22978142 25.02291603 4.2290802 26.76390076 C4.22607812 29.14803115 4.21825383 31.53215995 4.20581055 33.91625977 C4.18739748 37.58291473 4.18530222 41.24931895 4.18554688 44.91601562 C4.18063684 47.23698137 4.17481078 49.5579454 4.16796875 51.87890625 C4.16685593 52.97981094 4.1657431 54.08071564 4.16459656 55.21498108 C4.15821671 56.22370773 4.15183685 57.23243439 4.14526367 58.27172852 C4.14145187 59.16312027 4.13764008 60.05451202 4.13371277 60.97291565 C4 63 4 63 3 64 C2.86279034 65.37209664 2.76700925 66.74835409 2.6875 68.125 C1.76196268 78.19021835 -0.97848223 88.21234391 -6 97 C-7.31516437 93.35996441 -6.63702765 91.3823236 -5.3125 87.8125 C-1.82834225 77.19065796 -0.57922317 66.03392519 1 55 C1.19851563 53.70964844 1.39703125 52.41929687 1.6015625 51.08984375 C2.30566541 45.21472404 2.19064064 39.28294092 2.1875 33.375 C2.18814453 32.128396 2.18878906 30.88179199 2.18945312 29.59741211 C2.14632894 22.10213441 1.82240312 14.94293884 0.4375 7.56640625 C-0.00121555 4.99286949 -0.07564674 2.60508447 0 0 Z " fill="#DCFBFA" transform="translate(437,340)"/>
<path d="M0 0 C0.33 0 0.66 0 1 0 C1.23310984 32.67841389 1.23310984 32.67841389 0 43 C-0.33 43.33 -0.66 43.66 -1 44 C-1.34912328 45.72214591 -1.65431609 47.45329111 -1.9375 49.1875 C-2.64640617 53.28103338 -3.52481347 57.10129273 -5 61 C-5.33 61 -5.66 61 -6 61 C-6.28875 62.216875 -6.5775 63.43375 -6.875 64.6875 C-8.55076792 71.26256162 -8.55076792 71.26256162 -10 74 C-10.66 74.28875 -11.32 74.5775 -12 74.875 C-14.42369694 75.92969561 -14.42369694 75.92969561 -15 79.5 C-16 83 -16 83 -18.0625 84.21875 C-19.0215625 84.60546875 -19.0215625 84.60546875 -20 85 C-19.75354736 84.50298584 -19.50709473 84.00597168 -19.25317383 83.49389648 C-14.0098851 72.85436427 -9.30927286 62.4189534 -6 51 C-5.70480469 49.98808594 -5.40960938 48.97617187 -5.10546875 47.93359375 C-0.85549625 32.21078909 -0.49447169 16.17887235 0 0 Z " fill="#3E9C95" transform="translate(385,360)"/>
<path d="M0 0 C0.99 0.33 1.98 0.66 3 1 C-8.23046875 12.23046875 -8.23046875 12.23046875 -10.19628906 14.19604492 C-11.71347983 15.71344105 -13.22987907 17.23162854 -14.74609375 18.75 C-16.15618434 20.15764676 -17.57083275 21.56075923 -18.9921875 22.95703125 C-22.98897955 26.8957786 -26.76043109 30.93177798 -30.359375 35.23828125 C-32.09262501 37.09946162 -33.92644427 38.5349878 -36 40 C-36.33 39.34 -36.66 38.68 -37 38 C-35.46053474 33.38160421 -32.11384801 30.85481359 -28.3125 27.9375 C-25.99305773 25.9941835 -25.24835443 24.67504521 -24 22 C-21 20 -21 20 -18 20 C-17.731875 19.38125 -17.46375 18.7625 -17.1875 18.125 C-16 16 -16 16 -13 14 C-12.9175 13.21625 -12.835 12.4325 -12.75 11.625 C-12 9 -12 9 -8.625 6.875 C-7.99464844 6.55789063 -7.36429687 6.24078125 -6.71484375 5.9140625 C-4.78319647 4.8844373 -3.49852066 3.57739017 -2 2 C-1.34 2 -0.68 2 0 2 C0 1.34 0 0.68 0 0 Z " fill="#E5FEFD" transform="translate(365,255)"/>
<path d="M0 0 C0.66 0.33 1.32 0.66 2 1 C1.12674072 1.85754883 0.25348145 2.71509766 -0.64624023 3.59863281 C-3.88348601 6.78158711 -7.11080026 9.97445263 -10.33520508 13.17041016 C-11.73225226 14.55236904 -13.1319799 15.93162365 -14.53442383 17.30810547 C-16.54959198 19.28689359 -18.55492666 21.27520039 -20.55859375 23.265625 C-21.18777206 23.87931946 -21.81695038 24.49301392 -22.4651947 25.12530518 C-23.04572098 25.70560486 -23.62624725 26.28590454 -24.22436523 26.88378906 C-24.73732651 27.3900885 -25.25028778 27.89638794 -25.77879333 28.41802979 C-27.22688166 30.29390605 -27.71270702 31.6530421 -28 34 C-26.66299965 36.58944746 -26.66299965 36.58944746 -25 39 C-24.67 39.99 -24.34 40.98 -24 42 C-23.01 42 -22.02 42 -21 42 C-21 42.66 -21 43.32 -21 44 C-20.34 44.33 -19.68 44.66 -19 45 C-18.67 45.99 -18.34 46.98 -18 48 C-17.34 48 -16.68 48 -16 48 C-16 48.66 -16 49.32 -16 50 C-15.34 50 -14.68 50 -14 50 C-14 50.66 -14 51.32 -14 52 C-13.34 52 -12.68 52 -12 52 C-10.375 53.5 -10.375 53.5 -9 55 C-9.33 55.99 -9.66 56.98 -10 58 C-17.59 50.41 -25.18 42.82 -33 35 C-31.34771943 31.69543886 -30.41454461 30.16727189 -27.92724609 27.70019531 C-27.30675385 27.07985413 -26.6862616 26.45951294 -26.04696655 25.82037354 C-25.37920197 25.16293152 -24.71143738 24.5054895 -24.0234375 23.828125 C-23.33819 23.1457074 -22.6529425 22.46328979 -21.94692993 21.76019287 C-19.76094155 19.58538402 -17.56809571 17.41763928 -15.375 15.25 C-13.89016745 13.7752001 -12.40578694 12.29994494 -10.921875 10.82421875 C-7.2864709 7.21084552 -3.64490176 3.60379147 0 0 Z " fill="#378F89" transform="translate(200,330)"/>
<path d="M0 0 C0.33 0 0.66 0 1 0 C6.95355029 24.71786504 1.93631904 50.40267807 -6 74 C-6.33 74 -6.66 74 -7 74 C-6.24479259 66.57379384 -6.24479259 66.57379384 -5.0234375 63.7109375 C-3.7341716 60.29585912 -3.371014 56.91614523 -3 53.3125 C-2.54209574 48.99208854 -1.9690874 44.83895974 -0.9453125 40.61328125 C0.67066716 32.81145737 0.20986812 24.80136221 0.125 16.875 C0.11494877 15.23438047 0.10582672 13.59375497 0.09765625 11.953125 C0.07581549 7.96860035 0.0414043 3.98436741 0 0 Z " fill="#C9F1EF" transform="translate(382,349)"/>
<path d="M0 0 C2.97 0 5.94 0 9 0 C9.33 0.66 9.66 1.32 10 2 C7.36 2 4.72 2 2 2 C2 19.16 2 36.32 2 54 C3.65 54 5.3 54 7 54 C4 56 4 56 0 56 C0 37.52 0 19.04 0 0 Z " fill="#499893" transform="translate(273,505)"/>
<path d="M0 0 C0.99 0.33 1.98 0.66 3 1 C-5.58 9.58 -14.16 18.16 -23 27 C-28.18758479 22.55349875 -33.06122942 18.12151389 -37.875 13.3125 C-38.55046875 12.64927734 -39.2259375 11.98605469 -39.921875 11.30273438 C-40.56382812 10.66271484 -41.20578125 10.02269531 -41.8671875 9.36328125 C-42.44581543 8.78876221 -43.02444336 8.21424316 -43.62060547 7.62231445 C-45 6 -45 6 -46 3 C-44.3125 3.125 -44.3125 3.125 -42 4 C-40.78451421 5.41259159 -39.57544461 6.83282183 -38.4375 8.30859375 C-36.34407474 10.77178162 -33.88158518 12.69946762 -31.35546875 14.703125 C-30.90816406 15.13109375 -30.46085938 15.5590625 -30 16 C-30 16.66 -30 17.32 -30 18 C-29.01 18.33 -28.02 18.66 -27 19 C-25.3125 21.0625 -25.3125 21.0625 -24 23 C-20.4632153 21.4922049 -18.18849587 19.43339822 -15.48828125 16.71875 C-14.22854492 15.45611328 -14.22854492 15.45611328 -12.94335938 14.16796875 C-12.07517578 13.28753906 -11.20699219 12.40710938 -10.3125 11.5 C-9.43271484 10.61957031 -8.55292969 9.73914063 -7.64648438 8.83203125 C-3.32539873 4.79085757 -3.32539873 4.79085757 0 0 Z " fill="#3F938D" transform="translate(274,422)"/>
<path d="M0 0 C-0.58301412 3.31945598 -1.57443222 4.94397352 -3.95922852 7.29980469 C-4.89008018 8.23031647 -4.89008018 8.23031647 -5.83973694 9.17962646 C-6.51266281 9.83706848 -7.18558868 10.4945105 -7.87890625 11.171875 C-8.5655687 11.8542926 -9.25223114 12.53671021 -9.95970154 13.23980713 C-12.15369415 15.41701196 -14.35788916 17.58355281 -16.5625 19.75 C-18.05211634 21.22456971 -19.5410572 22.69982213 -21.02929688 24.17578125 C-24.67840808 27.79182176 -28.33670379 31.39833288 -32 35 C-32.495 33.515 -32.495 33.515 -33 32 C-32.34 32 -31.68 32 -31 32 C-31 31.01 -31 30.02 -31 29 C-30.34 29 -29.68 29 -29 29 C-28.71125 28.38125 -28.4225 27.7625 -28.125 27.125 C-27 25 -27 25 -25 23 C-24.01 23 -23.02 23 -22 23 C-22 21.68 -22 20.36 -22 19 C-21.01 19 -20.02 19 -19 19 C-19 18.34 -19 17.68 -19 17 C-18.34 17 -17.68 17 -17 17 C-17 16.01 -17 15.02 -17 14 C-16.34 14 -15.68 14 -15 14 C-15 13.34 -15 12.68 -15 12 C-14.34 12 -13.68 12 -13 12 C-12.67 11.01 -12.34 10.02 -12 9 C-3.69230769 0 -3.69230769 0 0 0 Z " fill="#D0F3F2" transform="translate(200,328)"/>
<path d="M0 0 C-18.87626977 10.86275902 -46.53353694 24.72530483 -69.125 21.5625 C-69.74375 21.376875 -70.3625 21.19125 -71 21 C-70.67 20.34 -70.34 19.68 -70 19 C-68.72125 19.04125 -67.4425 19.0825 -66.125 19.125 C-60.85504911 19.10060208 -56.11080805 18.24128671 -51 17 C-49.90196045 16.73413086 -49.90196045 16.73413086 -48.78173828 16.46289062 C-46.2469044 15.84236088 -43.71678829 15.20524299 -41.1875 14.5625 C-40.36266113 14.35729736 -39.53782227 14.15209473 -38.68798828 13.94067383 C-34.29868417 12.7965912 -30.84831382 11.47493788 -27 9 C-24.1875 8.8125 -24.1875 8.8125 -22 9 C-22 8.34 -22 7.68 -22 7 C-18.7 6.34 -15.4 5.68 -12 5 C-12 4.34 -12 3.68 -12 3 C-10.3789897 2.30314502 -8.75303934 1.61777139 -7.125 0.9375 C-6.22007812 0.55464844 -5.31515625 0.17179688 -4.3828125 -0.22265625 C-2 -1 -2 -1 0 0 Z " fill="#3A928A" transform="translate(346,538)"/>
<path d="M0 0 C-4.75134171 4.87782923 -9.52195383 9.7361749 -14.30664062 14.58129883 C-15.93292237 16.23276779 -17.55469406 17.88869042 -19.171875 19.54907227 C-21.49356267 21.93122056 -23.83085467 24.2970238 -26.171875 26.66015625 C-26.89493835 27.40902603 -27.61800171 28.15789581 -28.36297607 28.92945862 C-29.04337952 29.61023972 -29.72378296 30.29102081 -30.42480469 30.99243164 C-31.01992859 31.5986586 -31.61505249 32.20488556 -32.22821045 32.82948303 C-34 34 -34 34 -36.22344971 33.68797302 C-36.8097113 33.46094193 -37.3959729 33.23391083 -38 33 C-36.02 32.505 -36.02 32.505 -34 32 C-34 31.01 -34 30.02 -34 29 C-33.34 28.34 -32.68 27.68 -32 27 C-31.01 27 -30.02 27 -29 27 C-29 25.68 -29 24.36 -29 23 C-27.03277992 21.61876037 -25.03131672 20.28511874 -23 19 C-22.67 18.01 -22.34 17.02 -22 16 C-21.01 16 -20.02 16 -19 16 C-19 15.34 -19 14.68 -19 14 C-18.34 14 -17.68 14 -17 14 C-16.690625 12.88625 -16.690625 12.88625 -16.375 11.75 C-14.60199289 8.20398577 -12.2890777 7.12419602 -9 5 C-8.30251417 3.68252676 -7.63040043 2.35085807 -7 1 C-4.0449252 -1.00182486 -3.50436101 -1.16812034 0 0 Z " fill="#D0F5F4" transform="translate(286,339)"/>
<path d="M0 0 C0.33 0 0.66 0 1 0 C1.02893932 3.62498334 1.04677792 7.24993713 1.0625 10.875 C1.07087891 11.90753906 1.07925781 12.94007813 1.08789062 14.00390625 C1.09111328 14.99003906 1.09433594 15.97617188 1.09765625 16.9921875 C1.10289307 17.90339355 1.10812988 18.81459961 1.11352539 19.75341797 C1 22 1 22 0 24 C-0.20329268 25.82963411 -0.36472196 27.66408368 -0.5 29.5 C-0.88888889 34.77777778 -0.88888889 34.77777778 -2 37 C-2.36994571 39.79193401 -2.70236265 42.57534864 -3 45.375 C-3.1641788 46.90391504 -3.33076937 48.43257339 -3.5 49.9609375 C-3.5721875 50.63946777 -3.644375 51.31799805 -3.71875 52.01708984 C-4.00862988 54.06084369 -4.46554298 56.00747741 -5 58 C-5.66 58 -6.32 58 -7 58 C-5.45559619 38.56817296 -2.69166864 19.29849511 0 0 Z " fill="#D3F5F3" transform="translate(454,219)"/>
<path d="M0 0 C32.67 0 65.34 0 99 0 C99 0.33 99 0.66 99 1 C81.51 1.33 64.02 1.66 46 2 C45.34 3.98 44.68 5.96 44 8 C43.34 8 42.68 8 42 8 C41.34 5.69 40.68 3.38 40 1 C26.8 1 13.6 1 0 1 C0 0.67 0 0.34 0 0 Z " fill="#CBD5DF" transform="translate(1309,728)"/>
<path d="M0 0 C0.6875 1.76171875 0.6875 1.76171875 1 4 C-0.1875 5.89453125 -0.1875 5.89453125 -2 7.8125 C-2.64324219 8.49957031 -3.28648437 9.18664062 -3.94921875 9.89453125 C-4.96435547 10.93673828 -4.96435547 10.93673828 -6 12 C-6.64582031 12.68449219 -7.29164063 13.36898437 -7.95703125 14.07421875 C-11.40732882 17.65526444 -11.40732882 17.65526444 -13 19 C-13.66 19 -14.32 19 -15 19 C-15.226875 19.721875 -15.45375 20.44375 -15.6875 21.1875 C-17.26335128 24.56432417 -19.20876616 26.55767039 -22 29 C-22.66 29 -23.32 29 -24 29 C-24 29.66 -24 30.32 -24 31 C-25.65 31 -27.3 31 -29 31 C-23.64602018 24.47854246 -17.68698091 18.60578929 -11.6875 12.6875 C-9.68853383 10.71511498 -7.6929078 8.73943603 -5.69921875 6.76171875 C-4.82096436 5.89506592 -3.94270996 5.02841309 -3.0378418 4.13549805 C-0.96272827 2.17041329 -0.96272827 2.17041329 0 0 Z " fill="#3D9A94" transform="translate(393,229)"/>
<path d="M0 0 C0 0.33 0 0.66 0 1 C-11.37249558 3.05921731 -22.7912631 4.69496912 -34.25 6.1875 C-34.93393829 6.27785522 -35.61787659 6.36821045 -36.32254028 6.46130371 C-38.30300118 6.72203824 -40.28430454 6.97634852 -42.265625 7.23046875 C-43.41836914 7.37895264 -44.57111328 7.52743652 -45.75878906 7.68041992 C-48.86455476 7.98664524 -51.88170355 8.05815074 -55 8 C-55 7.34 -55 6.68 -55 6 C-53.03933594 5.72736328 -53.03933594 5.72736328 -51.0390625 5.44921875 C-49.2343241 5.19567452 -47.42964072 4.9417385 -45.625 4.6875 C-44.67343018 4.55432373 -43.72186035 4.42114746 -42.74145508 4.28393555 C-38.19930347 3.63851369 -33.67226638 2.9645118 -29.16015625 2.1328125 C-19.31573525 0.31958976 -10.00895163 -0.36817669 0 0 Z " fill="#D2F8F7" transform="translate(436,204)"/>
<path d="M0 0 C1 2 1 2 0.1875 5 C-1 8 -1 8 -3 10 C-3.28875 10.78375 -3.5775 11.5675 -3.875 12.375 C-5.14619565 15.34112319 -6.70025028 16.76993966 -9 19 C-9.44085938 19.75667969 -9.88171875 20.51335937 -10.3359375 21.29296875 C-12.18327789 24.29814925 -14.3008806 26.71834847 -16.6875 29.3125 C-17.89986328 30.63701172 -17.89986328 30.63701172 -19.13671875 31.98828125 C-19.75160156 32.65214844 -20.36648438 33.31601562 -21 34 C-21.99 33.67 -22.98 33.34 -24 33 C-23.55011719 32.5359375 -23.10023438 32.071875 -22.63671875 31.59375 C-13.77434341 22.07424462 -6.80714332 11.03984886 0 0 Z " fill="#E0F9F8" transform="translate(415,468)"/>
<path d="M0 0 C-0.66 0.99 -1.32 1.98 -2 3 C-5 3.125 -5 3.125 -8 3 C-8.66 3.33 -9.32 3.66 -10 4 C-11.71233688 3.9129796 -13.42175406 3.75902838 -15.125 3.5625 C-16.03507812 3.46066406 -16.94515625 3.35882813 -17.8828125 3.25390625 C-18.93082031 3.12822266 -18.93082031 3.12822266 -20 3 C-20 3.66 -20 4.32 -20 5 C-39.87111169 8.4398215 -39.87111169 8.4398215 -46 5 C-40.89649366 4.28006364 -35.79193586 3.5682955 -30.6862793 2.86376953 C-28.95290111 2.62344819 -27.21981972 2.38097511 -25.48706055 2.13623047 C-22.9830272 1.78294042 -20.47799554 1.43764182 -17.97265625 1.09375 C-16.82833885 0.92969666 -16.82833885 0.92969666 -15.66090393 0.7623291 C-10.39823125 0.0505039 -5.31104334 -0.09216561 0 0 Z " fill="#409994" transform="translate(433,206)"/>
<path d="M0 0 C0 0.66 0 1.32 0 2 C0.99 2.33 1.98 2.66 3 3 C3.33 3.66 3.66 4.32 4 5 C4.99 5.33 5.98 5.66 7 6 C10 10.33333333 10 10.33333333 10 13 C12.475 13.495 12.475 13.495 15 14 C15 14.99 15 15.98 15 17 C15.99 17 16.98 17 18 17 C18 17.66 18 18.32 18 19 C18.99 19.33 19.98 19.66 21 20 C21 20.99 21 21.98 21 23 C21.66 23 22.32 23 23 23 C23.33 24.65 23.66 26.3 24 28 C15.90850083 21.3796825 8.0907046 13.99812442 1.5625 5.8125 C-0.73654741 2.82404076 -0.73654741 2.82404076 -3.875 2.0625 C-4.57625 2.041875 -5.2775 2.02125 -6 2 C-3 0 -3 0 0 0 Z " fill="#CBF0EE" transform="translate(206,325)"/>
<path d="M0 0 C0.33 0.99 0.66 1.98 1 3 C-1.55538042 7.88855386 -5.06292704 10.99988795 -9.29296875 14.484375 C-11.10853548 15.90713898 -11.10853548 15.90713898 -12 18 C-12.66 18 -13.32 18 -14 18 C-14 18.66 -14 19.32 -14 20 C-14.66 20 -15.32 20 -16 20 C-16 20.66 -16 21.32 -16 22 C-17.8125 23.0625 -17.8125 23.0625 -20 24 C-20.99 23.67 -21.98 23.34 -23 23 C-15.41 15.41 -7.82 7.82 0 0 Z " fill="#DAF6F5" transform="translate(273,426)"/>
<path d="M0 0 C0.66 0.33 1.32 0.66 2 1 C-6.66745286 11.32403088 -15.81540034 20.44985439 -27 28 C-27.33 27.01 -27.66 26.02 -28 25 C-26.37660195 23.29115995 -24.70680947 21.62553283 -23 20 C-22.34 20 -21.68 20 -21 20 C-21 19.34 -21 18.68 -21 18 C-19.35 18 -17.7 18 -16 18 C-16 17.01 -16 16.02 -16 15 C-15.01 15 -14.02 15 -13 15 C-13 14.34 -13 13.68 -13 13 C-12.34 13 -11.68 13 -11 13 C-10.773125 12.278125 -10.54625 11.55625 -10.3125 10.8125 C-8.72058538 7.40125439 -6.84938495 5.44232995 -4 3 C-1.6875 2.1875 -1.6875 2.1875 0 2 C0 1.34 0 0.68 0 0 Z " fill="#DDFCFB" transform="translate(353,458)"/>
<path d="M0 0 C0.33 0.66 0.66 1.32 1 2 C-0.25 4.625 -0.25 4.625 -2 7 C-2.99 7 -3.98 7 -5 7 C-5.0825 7.556875 -5.165 8.11375 -5.25 8.6875 C-6.23895541 11.73677919 -7.84757466 13.65189963 -10 16 C-10.66 16 -11.32 16 -12 16 C-12 16.66 -12 17.32 -12 18 C-13.875 20.125 -13.875 20.125 -16 22 C-16.66 22 -17.32 22 -18 22 C-18 22.66 -18 23.32 -18 24 C-19.98 24.33 -21.96 24.66 -24 25 C-21.2046217 21.56029691 -18.48401416 18.40162877 -15.0625 15.5625 C-11.89165293 12.90934225 -9.35284393 10.07400354 -6.6796875 6.9375 C-4.56353555 4.49654333 -2.31829594 2.24804455 0 0 Z " fill="#3E9993" transform="translate(363,260)"/>
<path d="M0 0 C0.33 0.66 0.66 1.32 1 2 C-0.99736927 6.1057035 -3.78360994 8.8151874 -7 12 C-8.04367344 13.10756841 -9.08388911 14.21840268 -10.12109375 15.33203125 C-11.22636813 16.49237268 -12.33183957 17.65252643 -13.4375 18.8125 C-14.25831055 19.7087207 -14.25831055 19.7087207 -15.09570312 20.62304688 C-19.23927978 24.91373276 -19.23927978 24.91373276 -23.41015625 25.38671875 C-24.69212891 25.19529297 -24.69212891 25.19529297 -26 25 C-22.24182229 21.12127697 -18.26964383 17.64490847 -14.125 14.1875 C-8.94279247 9.81598516 -4.19285376 5.35928677 0 0 Z " fill="#E2FAF9" transform="translate(390,502)"/>
<path d="M0 0 C2.475 0.99 2.475 0.99 5 2 C5.33 5.63 5.66 9.26 6 13 C6.66 13 7.32 13 8 13 C9.75623315 18.37578685 10.39316874 23.30110255 10.625 28.9375 C10.66367187 29.71673828 10.70234375 30.49597656 10.7421875 31.29882812 C10.83544127 33.19887379 10.91875962 35.09940278 11 37 C9.3907561 34.05898268 8.50969212 31.35299261 7.81640625 28.078125 C7.61080078 27.13453125 7.40519531 26.1909375 7.19335938 25.21875 C6.77613207 23.25532739 6.3594563 21.29178748 5.94335938 19.328125 C4.70571783 13.65270957 3.18792165 8.3836906 1 3 C-1.475 4.485 -1.475 4.485 -4 6 C-2.84826645 3.53199953 -1.95216435 1.95216435 0 0 Z " fill="#38928A" transform="translate(374,322)"/>
<path d="M0 0 C3.83663072 1.34929464 6.65172569 3.07751025 9.8125 5.625 C10.99779297 6.57246094 10.99779297 6.57246094 12.20703125 7.5390625 C12.79871094 8.02117187 13.39039063 8.50328125 14 9 C12.52278578 12.45201639 10.56205999 14.64961936 7.875 17.25 C7.15054687 17.95640625 6.42609375 18.6628125 5.6796875 19.390625 C5.12539063 19.92171875 4.57109375 20.4528125 4 21 C3.34 19.68 2.68 18.36 2 17 C2.99 16.67 3.98 16.34 5 16 C5.63394697 11.95858806 6.12404452 8.0934693 6 4 C5.195625 3.71125 4.39125 3.4225 3.5625 3.125 C1 2 1 2 0 0 Z " fill="#213448" transform="translate(358,219)"/>
<path d="M0 0 C1.98 1.65 3.96 3.3 6 5 C4.43717018 8.76603869 2.0936525 11.13639151 -0.7890625 13.984375 C-1.25234955 14.44483215 -1.7156366 14.90528931 -2.19296265 15.37969971 C-3.66565898 16.84125078 -5.14517403 18.29567168 -6.625 19.75 C-7.62806322 20.74302611 -8.63067257 21.73651089 -9.6328125 22.73046875 C-12.08330835 25.15897941 -14.5399667 27.58114675 -17 30 C-17.33 29.01 -17.66 28.02 -18 27 C-17.34 27 -16.68 27 -16 27 C-15.67 25.68 -15.34 24.36 -15 23 C-14.01 23 -13.02 23 -12 23 C-11.8453125 22.1028125 -11.8453125 22.1028125 -11.6875 21.1875 C-10.89363064 18.66155205 -10.04427591 17.65114593 -8 16 C-7.01 15.67 -6.02 15.34 -5 15 C-3.79117904 12.99983534 -3.79117904 12.99983534 -3 11 C-2.01 11 -1.02 11 0 11 C0 10.01 0 9.02 0 8 C0.66 8 1.32 8 2 8 C1.47731534 5.23723823 0.89130413 2.6739124 0 0 Z " fill="#DFFEFD" transform="translate(387,224)"/>
<path d="M0 0 C0 0.66 0 1.32 0 2 C-5.08815479 6.62559526 -8.74399093 9.12457078 -15.75 9.625 C-17.22726562 9.73714844 -17.22726562 9.73714844 -18.734375 9.8515625 C-19.48203125 9.90054688 -20.2296875 9.94953125 -21 10 C-21 10.66 -21 11.32 -21 12 C-24.3 12.33 -27.6 12.66 -31 13 C-28.56209062 11.37472708 -26.73558193 10.41901426 -24.05078125 9.4140625 C-23.28443359 9.12273438 -22.51808594 8.83140625 -21.72851562 8.53125 C-20.13752965 7.93446949 -18.5463877 7.33810459 -16.95507812 6.7421875 C-13.04333807 5.25448653 -9.26922949 3.68412462 -5.54296875 1.7734375 C-2 0 -2 0 0 0 Z " fill="#DAF6F5" transform="translate(341,541)"/>
<path d="M0 0 C0.33 0 0.66 0 1 0 C1.18900395 26.49544606 1.18900395 26.49544606 0.6875 36.25 C0.62949219 37.41015625 0.57148438 38.5703125 0.51171875 39.765625 C-0.09679259 43.61178826 -1.33797726 46.48880988 -3 50 C-3.33 50 -3.66 50 -4 50 C-4.16177628 44.64731518 -3.53165348 39.81503095 -2.5625 34.5625 C-0.57889974 23.10567777 -0.26964991 11.60388485 0 0 Z " fill="#378F88" transform="translate(385,360)"/>
<path d="M0 0 C2.31 0 4.62 0 7 0 C7.33 0.99 7.66 1.98 8 3 C7.67 3.66 7.34 4.32 7 5 C7.66 5.33 8.32 5.66 9 6 C9 6.66 9 7.32 9 8 C9.5775 8.2475 10.155 8.495 10.75 8.75 C13.3002997 10.16683317 15.01785701 11.87627537 17 14 C16.67 14.99 16.34 15.98 16 17 C10.37780154 12.33477149 4.83989204 7.48740595 0 2 C0 1.34 0 0.68 0 0 Z " fill="#429B95" transform="translate(377,212)"/>
<path d="M0 0 C-11.75405974 5.60989215 -24.1052748 7.2098599 -37 7 C-33.09300004 4.57245069 -28.89949026 4.21583328 -24.4375 3.5625 C-18.18364923 2.59998248 -12.19938303 1.40741927 -6.1640625 -0.546875 C-3.75197803 -1.0519324 -2.31254168 -0.78140678 0 0 Z " fill="#CFF3F1" transform="translate(310,555)"/>
<path d="M0 0 C1.98 0.99 1.98 0.99 4 2 C4 2.66 4 3.32 4 4 C4.66 4 5.32 4 6 4 C7.37719727 5.3984375 7.37719727 5.3984375 9.00390625 7.375 C13.38242943 12.52433397 18.13686053 17.24681932 22.9375 22 C23.81212891 22.87011719 24.68675781 23.74023438 25.58789062 24.63671875 C27.72297449 26.76013549 29.86037205 28.88116378 32 31 C31.67 31.66 31.34 32.32 31 33 C26.57816365 28.62872972 22.16407358 24.24975043 17.75537109 19.86523438 C16.25357961 18.37352203 14.75000097 16.88360672 13.24462891 15.39550781 C11.08548034 13.26052352 8.93276847 11.11923229 6.78125 8.9765625 C6.10316284 8.30879791 5.42507568 7.64103333 4.72644043 6.95303345 C3.79547546 6.02229507 3.79547546 6.02229507 2.84570312 5.07275391 C2.29499146 4.52648346 1.74427979 3.98021301 1.17687988 3.41738892 C0 2 0 2 0 0 Z " fill="#358B85" transform="translate(192,388)"/>
<path d="M0 0 C2.42348595 0.08655307 3.68385658 0.6766715 5.375 2.40625 C6.62094897 3.90705217 7.81389216 5.45147031 9 7 C8.01 7 7.02 7 6 7 C6 6.34 6 5.68 6 5 C2.96644191 4.70516672 1.47862122 4.65479136 -1.03637695 6.46875 C-2.00256958 7.47421875 -2.00256958 7.47421875 -2.98828125 8.5 C-3.69404297 9.221875 -4.39980469 9.94375 -5.12695312 10.6875 C-5.84818359 11.450625 -6.56941406 12.21375 -7.3125 13 C-8.05306641 13.763125 -8.79363281 14.52625 -9.55664062 15.3125 C-11.38283156 17.19760032 -13.19635759 19.09335569 -15 21 C-15.66 20.67 -16.32 20.34 -17 20 C-16.5153125 19.53102295 -16.030625 19.0620459 -15.53125 18.57885742 C-13.34639363 16.45623795 -11.1731471 14.3221031 -9 12.1875 C-8.236875 11.44951172 -7.47375 10.71152344 -6.6875 9.95117188 C-5.965625 9.23896484 -5.24375 8.52675781 -4.5 7.79296875 C-3.8296875 7.1383667 -3.159375 6.48376465 -2.46875 5.80932617 C-0.68487528 4.00020806 -0.68487528 4.00020806 -1 1 C-0.67 0.67 -0.34 0.34 0 0 Z " fill="#299C94" transform="translate(202,327)"/>
<path d="M0 0 C-0.33 4.29 -0.66 8.58 -1 13 C-1.33 13 -1.66 13 -2 13 C-2.495 8.05 -2.495 8.05 -3 3 C-4.010625 3.165 -5.02125 3.33 -6.0625 3.5 C-11.64887438 4.20938087 -15.99502688 4.75873246 -21 2 C-18.81347261 1.66034526 -16.62571975 1.32857523 -14.4375 1 C-13.21933594 0.814375 -12.00117188 0.62875 -10.74609375 0.4375 C-7.12372152 0.01444923 -3.64287954 -0.07501425 0 0 Z " fill="#419A92" transform="translate(457,202)"/>
<path d="M0 0 C7.66666667 7.66666667 15.33333333 15.33333333 23 23 C22.01 23.33 21.02 23.66 20 24 C18 23 18 23 17.1875 21.0625 C16.15303573 18.76518285 16.15303573 18.76518285 13.5625 18.0625 C10.23343844 16.6821574 9.67600602 15.13340257 8 12 C6.04243838 9.41096689 4.1107871 7.10463226 1.75 4.875 C0 3 0 3 0 0 Z " fill="#DCFBFA" transform="translate(166,363)"/>
<path d="M0 0 C0.33 0 0.66 0 1 0 C1.82555811 23.99516389 1.82555811 23.99516389 -3 33 C-4.30245502 29.25087714 -3.78479309 26.14947951 -3.22265625 22.265625 C-2.94711914 20.32236328 -2.94711914 20.32236328 -2.66601562 18.33984375 C-2.46500913 16.97653811 -2.26383513 15.61325715 -2.0625 14.25 C-1.8645334 12.87119421 -1.66725997 11.49228871 -1.47070312 10.11328125 C-0.98728477 6.74114347 -0.49678949 3.37018948 0 0 Z " fill="#C3EBE9" transform="translate(454,219)"/>
<path d="M0 0 C2.02054804 1.64169528 4.02043058 3.30911778 6 5 C6 5.33 6 5.66 6 6 C-2.25 6 -10.5 6 -19 6 C-19.66 4.68 -20.32 3.36 -21 2 C-20.01 2.495 -20.01 2.495 -19 3 C-17.47851674 3.08372659 -15.95344222 3.10730027 -14.4296875 3.09765625 C-13.08583984 3.09282227 -13.08583984 3.09282227 -11.71484375 3.08789062 C-10.77769531 3.07951172 -9.84054687 3.07113281 -8.875 3.0625 C-7.45767578 3.05573242 -7.45767578 3.05573242 -6.01171875 3.04882812 C-3.67441613 3.03702357 -1.33723939 3.02055759 1 3 C0.67 2.01 0.34 1.02 0 0 Z " fill="#273748" transform="translate(808,429)"/>
<path d="M0 0 C0.33 0 0.66 0 1 0 C-0.00374376 23.00686356 -0.00374376 23.00686356 -6 34 C-7.3881785 30.25369778 -6.55584156 28.00765312 -5.25 24.3125 C-2.63656122 16.34514151 -1.30694344 8.26740735 0 0 Z " fill="#CFF5F3" transform="translate(437,403)"/>
<path d="M0 0 C8.25 0 16.5 0 25 0 C23.68 1.32 22.36 2.64 21 4 C21 3.34 21 2.68 21 2 C17.54133208 2.13850705 14.08316725 2.28704727 10.625 2.4375 C9.14773438 2.49647461 9.14773438 2.49647461 7.640625 2.55664062 C6.22910156 2.61948242 6.22910156 2.61948242 4.7890625 2.68359375 C3.91975098 2.72025146 3.05043945 2.75690918 2.15478516 2.79467773 C-0.0483262 2.87401544 -0.0483262 2.87401544 -2 4 C-1.34 2.68 -0.68 1.36 0 0 Z " fill="#303F50" transform="translate(788,356)"/>
<path d="M0 0 C1.16959987 0.97566112 2.33561177 1.955625 3.5 2.9375 C4.1496875 3.48277344 4.799375 4.02804687 5.46875 4.58984375 C5.9740625 5.05519531 6.479375 5.52054687 7 6 C7 6.33 7 6.66 7 7 C3.72933434 7.08706892 0.45896635 7.14041241 -2.8125 7.1875 C-3.74126953 7.21263672 -4.67003906 7.23777344 -5.62695312 7.26367188 C-6.9659668 7.27817383 -6.9659668 7.27817383 -8.33203125 7.29296875 C-9.15421143 7.3086792 -9.9763916 7.32438965 -10.82348633 7.34057617 C-13.50456255 6.92104714 -14.3869427 6.14498486 -16 4 C-16 3.34 -16 2.68 -16 2 C-15.34 2 -14.68 2 -14 2 C-13.67 2.66 -13.34 3.32 -13 4 C-8.05 4 -3.1 4 2 4 C1.34 2.68 0.68 1.36 0 0 Z " fill="#273545" transform="translate(1187,428)"/>
<path d="M0 0 C0.66 0.33 1.32 0.66 2 1 C1.01 1.99 0.02 2.98 -1 4 C-1.66 3.67 -2.32 3.34 -3 3 C-2.01 2.01 -1.02 1.02 0 0 Z M-5 4 C-4.34 4.33 -3.68 4.66 -3 5 C-3.67095703 5.65355469 -3.67095703 5.65355469 -4.35546875 6.3203125 C-7.23899844 9.16080444 -10.06590858 11.9854118 -12.625 15.125 C-14.94388084 17.93206628 -17.39300636 20.46161146 -20 23 C-20.598125 23.598125 -21.19625 24.19625 -21.8125 24.8125 C-22.204375 25.204375 -22.59625 25.59625 -23 26 C-23.66 25.67 -24.32 25.34 -25 25 C-18.46888144 17.85931038 -11.93657658 10.75296132 -5 4 Z " fill="#E4EDF2" transform="translate(182,267)"/>
<path d="M0 0 C0.99 0 1.98 0 3 0 C2.46960703 4.057041 0.42356448 5.94844566 -2.4375 8.75 C-3.24058594 9.54921875 -4.04367187 10.3484375 -4.87109375 11.171875 C-7 13 -7 13 -9 13 C-8.67 11.35 -8.34 9.7 -8 8 C-7.34 8 -6.68 8 -6 8 C-5.34 6.68 -4.68 5.36 -4 4 C-3.34 4 -2.68 4 -2 4 C-2 3.34 -2 2.68 -2 2 C-1.34 2 -0.68 2 0 2 C0 1.34 0 0.68 0 0 Z " fill="#36908B" transform="translate(332,362)"/>
<path d="M0 0 C5.66129431 4.69766975 10.85228904 9.74723372 16 15 C15.01 15.33 14.02 15.66 13 16 C7.44444444 11.88888889 7.44444444 11.88888889 6 9 C5.01 8.67 4.02 8.34 3 8 C0.92469613 5.07920195 0 3.62453269 0 0 Z " fill="#CEF2F0" transform="translate(203,401)"/>
<path d="M0 0 C0.99 0.99 1.98 1.98 3 3 C1.19047409 4.83635578 -0.62240638 6.66916208 -2.4375 8.5 C-2.95376953 9.02464844 -3.47003906 9.54929687 -4.00195312 10.08984375 C-5.31576787 11.41224552 -6.65593505 12.70835568 -8 14 C-8.33 14 -8.66 14 -9 14 C-9 12.35 -9 10.7 -9 9 C-8.34 9 -7.68 9 -7 9 C-6.34 7.68 -5.68 6.36 -5 5 C-4.34 5 -3.68 5 -3 5 C-3 4.34 -3 3.68 -3 3 C-2.34 3 -1.68 3 -1 3 C-0.67 2.01 -0.34 1.02 0 0 Z " fill="#479D97" transform="translate(368,326)"/>
<path d="M0 0 C2 1 2 1 3.0703125 3.65234375 C3.41835938 4.73644531 3.76640625 5.82054687 4.125 6.9375 C4.47820312 8.01902344 4.83140625 9.10054688 5.1953125 10.21484375 C6 13 6 13 6 15 C5.34 15 4.68 15 4 15 C3.67 13.35 3.34 11.7 3 10 C2.34 10 1.68 10 1 10 C0.67 9.34 0.34 8.68 0 8 C-1.98 8.66 -3.96 9.32 -6 10 C-5.34 9.236875 -4.68 8.47375 -4 7.6875 C-1.70149462 5.15722061 -1.70149462 5.15722061 -2 2 C-1.34 1.34 -0.68 0.68 0 0 Z " fill="#DAF4F3" transform="translate(374,324)"/>
<path d="M0 0 C3.875 1.75 3.875 1.75 5 4 C4.26394531 3.9278125 3.52789062 3.855625 2.76953125 3.78125 C-1.61798471 4.12779569 -3.4658292 6.61043968 -6.39453125 9.6875 C-8.91382146 13.31625865 -8.61273577 15.71084959 -8 20 C-8.66 20 -9.32 20 -10 20 C-11.47695311 17.65425094 -12.03094836 16.3762349 -11.80078125 13.578125 C-10.82978537 10.45199191 -9.67097179 9.44723231 -7.125 7.4375 C-4.27826301 5.16326178 -2.08589957 2.9976607 0 0 Z " fill="#CCF5F4" transform="translate(429,268)"/>
<path d="M0 0 C0.66 0.33 1.32 0.66 2 1 C-1.64540306 7.30835707 -5.48981359 13.27430236 -10 19 C-11 16 -11 16 -9.8125 13.0625 C-8.11078545 10.18718921 -6.37996778 8.30063552 -4 6 C-3.67 5.01 -3.34 4.02 -3 3 C-2.34 3 -1.68 3 -1 3 C-0.67 2.01 -0.34 1.02 0 0 Z " fill="#DAFBFA" transform="translate(366,439)"/>
<path d="M0 0 C0.33 0 0.66 0 1 0 C1.36637589 6.35051546 1.36637589 6.35051546 -0.375 9.4375 C-2 11 -2 11 -4 11 C-4.2475 12.11375 -4.495 13.2275 -4.75 14.375 C-6 18 -6 18 -8.078125 19.2265625 C-8.71234375 19.48179687 -9.3465625 19.73703125 -10 20 C-8.52430274 16.8525276 -7.04386446 13.70730861 -5.5625 10.5625 C-5.14162109 9.66466797 -4.72074219 8.76683594 -4.28710938 7.84179688 C-3.88427734 6.98779297 -3.48144531 6.13378906 -3.06640625 5.25390625 C-2.5086853 4.06776733 -2.5086853 4.06776733 -1.93969727 2.85766602 C-1 1 -1 1 0 0 Z " fill="#3A938E" transform="translate(375,425)"/>
<path d="M0 0 C0.99 0 1.98 0 3 0 C1.47605205 4.20532472 -1.6152865 6.25004166 -5.125 8.75 C-5.96998047 9.36681641 -5.96998047 9.36681641 -6.83203125 9.99609375 C-8.21601634 11.00476085 -9.60730541 12.00339286 -11 13 C-11.33 12.01 -11.66 11.02 -12 10 C-10.37660195 8.29115995 -8.70680947 6.62553283 -7 5 C-6.34 5 -5.68 5 -5 5 C-5 4.34 -5 3.68 -5 3 C-3.35 3 -1.7 3 0 3 C0 2.01 0 1.02 0 0 Z " fill="#D4F7F6" transform="translate(337,473)"/>
<path d="M0 0 C2.31 0 4.62 0 7 0 C7 4.62 7 9.24 7 14 C4.03 14 1.06 14 -2 14 C-1.34 13.34 -0.68 12.68 0 12 C1.65 12 3.3 12 5 12 C5 8.37 5 4.74 5 1 C3.35 1 1.7 1 0 1 C0 0.67 0 0.34 0 0 Z " fill="#15273B" transform="translate(1322,356)"/>
<path d="M0 0 C-0.54984772 3.87511727 -2.27555331 5.59576506 -5.0625 8.25 C-5.79597656 8.95640625 -6.52945312 9.6628125 -7.28515625 10.390625 C-7.85105469 10.92171875 -8.41695313 11.4528125 -9 12 C-9.66 11.34 -10.32 10.68 -11 10 C-9.5249453 5.5748359 -5.06750127 0 0 0 Z " fill="#CBF0EF" transform="translate(339,283)"/>
<path d="M0 0 C-2.03814233 0.67736481 -4.08070555 1.34143534 -6.125 2 C-7.83042969 2.556875 -7.83042969 2.556875 -9.5703125 3.125 C-12.87895941 3.96911949 -15.60528016 4.16509276 -19 4 C-18.67 3.01 -18.34 2.02 -18 1 C-15.07995894 0.02665298 -12.61570836 -0.33500735 -9.5625 -0.625 C-8.61503906 -0.72039062 -7.66757812 -0.81578125 -6.69140625 -0.9140625 C-4.19590395 -0.99374472 -2.36330421 -0.74865902 0 0 Z " fill="#DEFAFA" transform="translate(297,500)"/>
<path d="M0 0 C0 3 0 3 -1.609375 4.8671875 C-2.31578125 5.52976562 -3.0221875 6.19234375 -3.75 6.875 C-6.07785058 9.10875468 -8.17502408 11.22003027 -10.1875 13.75 C-12.20674885 16.25665374 -14.43177264 18.07382948 -17 20 C-17.66 19.67 -18.32 19.34 -19 19 C-12.73 12.73 -6.46 6.46 0 0 Z " fill="#CFF5F3" transform="translate(303,396)"/>
<path d="M0 0 C5.24972347 4.10037573 9.20962911 8.52964787 13 14 C9.08158173 12.69386058 6.67359191 11.16870152 4 8 C4 7.34 4 6.68 4 6 C3.34 6 2.68 6 2 6 C2 5.34 2 4.68 2 4 C1.34 4 0.68 4 0 4 C0 2.68 0 1.36 0 0 Z " fill="#D9F9F8" transform="translate(221,419)"/>
<path d="M0 0 C0 1.98 0 3.96 0 6 C-6.27 6 -12.54 6 -19 6 C-19 5.67 -19 5.34 -19 5 C-18.32453125 4.95101563 -17.6490625 4.90203125 -16.953125 4.8515625 C-16.06109375 4.77679688 -15.1690625 4.70203125 -14.25 4.625 C-13.36828125 4.55539062 -12.4865625 4.48578125 -11.578125 4.4140625 C-7.3445712 3.7341281 -3.99921174 0 0 0 Z " fill="#4A5968" transform="translate(726,375)"/>
<path d="M0 0 C0.66 0.66 1.32 1.32 2 2 C-1.3 5.3 -4.6 8.6 -8 12 C-8.66 11.67 -9.32 11.34 -10 11 C-10 10.01 -10 9.02 -10 8 C-9.34 8 -8.68 8 -8 8 C-8 7.34 -8 6.68 -8 6 C-7.01 6 -6.02 6 -5 6 C-4.9175 5.38125 -4.835 4.7625 -4.75 4.125 C-4 2 -4 2 -1.9375 0.75 C-1.298125 0.5025 -0.65875 0.255 0 0 Z " fill="#489C95" transform="translate(387,503)"/>
<path d="M0 0 C-1.51851963 4.25185497 -4.09763766 5.90428689 -8 8 C-10.70172878 8.58796616 -13.22785349 8.80881748 -16 9 C-13.06698229 6.72861652 -10.04931207 4.73130058 -6.875 2.8125 C-6.00617188 2.28269531 -5.13734375 1.75289062 -4.2421875 1.20703125 C-2 0 -2 0 0 0 Z " fill="#DBF8F7" transform="translate(357,532)"/>
<path d="M0 0 C0.33 0.66 0.66 1.32 1 2 C2.97888961 2.72693904 4.97954558 3.39816251 7 4 C6.02471263 5.33617352 5.04466681 6.6688751 4.0625 8 C3.24458984 9.11375 3.24458984 9.11375 2.41015625 10.25 C1.94480469 10.8275 1.47945312 11.405 1 12 C0.67 12 0.34 12 0 12 C0 8.04 0 4.08 0 0 Z " fill="#DBE4EC" transform="translate(1304,356)"/>
<path d="M0 0 C-1.59092052 4.13639336 -4.60474918 7.23213248 -8 10 C-8.66 10 -9.32 10 -10 10 C-10.33 9.01 -10.66 8.02 -11 7 C-10.01 6.67 -9.02 6.34 -8 6 C-8 5.34 -8 4.68 -8 4 C-3.64705882 0 -3.64705882 0 0 0 Z " fill="#3B938C" transform="translate(359,339)"/>
<path d="M0 0 C1.39211215 4.17633644 -0.0464421 5.78960515 -1.9375 9.6875 C-2.50339844 10.86699219 -3.06929688 12.04648437 -3.65234375 13.26171875 C-4.09707031 14.16535156 -4.54179687 15.06898438 -5 16 C-6.43452459 11.69642622 -5.45902218 8.2319282 -4 4 C-1.875 1.4375 -1.875 1.4375 0 0 Z " fill="#D6F8F7" transform="translate(374,423)"/>
<path d="M0 0 C0.66 0.33 1.32 0.66 2 1 C1.44449305 4.59905908 0.25112752 5.99909799 -2.5625 8.25 C-3.20316406 8.77078125 -3.84382813 9.2915625 -4.50390625 9.828125 C-4.99761719 10.21484375 -5.49132812 10.6015625 -6 11 C-6.66 10.01 -7.32 9.02 -8 8 C-6.71034824 6.62437146 -5.37310707 5.29233607 -4 4 C-3.34 4 -2.68 4 -2 4 C-1.34 2.68 -0.68 1.36 0 0 Z " fill="#23364A" transform="translate(349,247)"/>
<path d="M0 0 C2 3 2 3 1.75 5.75 C0.95046422 9.21465503 0.02160945 12.59463515 -1 16 C-1.66 16 -2.32 16 -3 16 C-3.37851209 10.06997733 -2.10575375 5.52760359 0 0 Z " fill="#304253" transform="translate(950,376)"/>
<path d="M0 0 C2.475 0.99 2.475 0.99 5 2 C5.33 5.63 5.66 9.26 6 13 C3.90217213 10.90217213 3.3490604 9.6200793 2.375 6.875 C2.11460937 6.15054687 1.85421875 5.42609375 1.5859375 4.6796875 C1.29589844 3.84824219 1.29589844 3.84824219 1 3 C-1.475 4.485 -1.475 4.485 -4 6 C-2.84826645 3.53199953 -1.95216435 1.95216435 0 0 Z " fill="#2E8C87" transform="translate(374,322)"/>
<path d="M0 0 C0.66 0 1.32 0 2 0 C1.45015228 3.87511727 -0.27555331 5.59576506 -3.0625 8.25 C-3.79597656 8.95640625 -4.52945312 9.6628125 -5.28515625 10.390625 C-5.85105469 10.92171875 -6.41695313 11.4528125 -7 12 C-7.66 11.34 -8.32 10.68 -9 10 C-7.61198929 6.64564078 -6.11371 4.88709697 -3 3 C-2.01 3 -1.02 3 0 3 C0 2.01 0 1.02 0 0 Z " fill="#449993" transform="translate(427,267)"/>
<path d="M0 0 C-0.99 1.485 -0.99 1.485 -2 3 C-5 3.125 -5 3.125 -8 3 C-8.99 3.495 -8.99 3.495 -10 4 C-11.54613014 3.91348369 -13.08909387 3.75997364 -14.625 3.5625 C-15.85089844 3.40974609 -15.85089844 3.40974609 -17.1015625 3.25390625 C-17.72804688 3.17011719 -18.35453125 3.08632812 -19 3 C-12.84727321 -0.22722983 -6.8010413 -0.13602083 0 0 Z " fill="#2F8D87" transform="translate(433,206)"/>
<path d="M0 0 C5.28 0 10.56 0 16 0 C16 0.33 16 0.66 16 1 C13.08483516 1.53084792 10.16839443 2.04999055 7.25 2.5625 C6.425 2.71396484 5.6 2.86542969 4.75 3.02148438 C3.55117188 3.2293457 3.55117188 3.2293457 2.328125 3.44140625 C1.5949707 3.57232666 0.86181641 3.70324707 0.10644531 3.83813477 C-2.16233287 4.01247412 -3.83778579 3.66874807 -6 3 C-5 2 -5 2 -2.4375 1.9375 C-1.2309375 1.9684375 -1.2309375 1.9684375 0 2 C0 1.34 0 0.68 0 0 Z " fill="#C4EEED" transform="translate(420,204)"/>
<path d="M0 0 C0 0.66 0 1.32 0 2 C-4.97361654 3.75734451 -9.7415998 5.32584613 -15 6 C-15.33 5.01 -15.66 4.02 -16 3 C-13.89679937 2.49595192 -11.79240209 1.99689492 -9.6875 1.5 C-8.51574219 1.2215625 -7.34398437 0.943125 -6.13671875 0.65625 C-3 0 -3 0 0 0 Z " fill="#314559" transform="translate(223,190)"/>
<path d="M0 0 C-2.35968744 2.09749995 -3.54616994 2.96905704 -6.75 3.1875 C-7.86375 3.0946875 -7.86375 3.0946875 -9 3 C-9 3.66 -9 4.32 -9 5 C-12.3 5.33 -15.6 5.66 -19 6 C-15.78117751 3.85411834 -12.54876914 2.60197657 -8.9375 1.3125 C-8.30005859 1.07466797 -7.66261719 0.83683594 -7.00585938 0.59179688 C-2.24081277 -1.12040638 -2.24081277 -1.12040638 0 0 Z " fill="#CCF3F0" transform="translate(329,548)"/>
<path d="M0 0 C1 2 1 2 0.5 4.5625 C-1.57786514 9.32427429 -4.69579007 13.02434634 -8 17 C-8.66 16.67 -9.32 16.34 -10 16 C-6.7 10.72 -3.4 5.44 0 0 Z " fill="#D4F5F4" transform="translate(415,468)"/>
<path d="M0 0 C-3.3 3.3 -6.6 6.6 -10 10 C-10.33 9.01 -10.66 8.02 -11 7 C-8.25256724 2.01391833 -5.96667039 -1.98889013 0 0 Z " fill="#CBF3F1" transform="translate(286,339)"/>
<path d="M0 0 C5.29012124 4.40843437 10.18808428 9.07559794 15 14 C14.67 14.66 14.34 15.32 14 16 C13.34 16 12.68 16 12 16 C10.66796875 14.42578125 10.66796875 14.42578125 9.1875 12.3125 C7.28786028 9.67721549 5.50214644 7.50214644 3.1875 5.1875 C1 3 1 3 0 0 Z " fill="#DEFDFC" transform="translate(235,434)"/>
<path d="M0 0 C2.09721098 3.14581646 3.05667086 5.8408918 4.1875 9.4375 C4.55230469 10.57058594 4.91710937 11.70367187 5.29296875 12.87109375 C5.96248932 15.8339997 6.07236414 17.22004965 5 20 C3.20958752 16.76168874 2.26249761 13.58584892 1.375 10 C1.11460937 8.96875 0.85421875 7.9375 0.5859375 6.875 C0 4 0 4 0 0 Z " fill="#4A9C95" transform="translate(428,309)"/>
<path d="M0 0 C0.33 0 0.66 0 1 0 C1.93091517 6.41297119 2.38940554 12.60873451 1 19 C0.34 19.66 -0.32 20.32 -1 21 C-1.18451025 6.21867882 -1.18451025 6.21867882 0 0 Z " fill="#E2FCFB" transform="translate(456,208)"/>
<path d="M0 0 C0.33 0 0.66 0 1 0 C0.91245449 1.75091019 0.80426627 3.50079551 0.6875 5.25 C0.62949219 6.22453125 0.57148438 7.1990625 0.51171875 8.203125 C-0.0509171 11.27829497 -0.84334654 12.76347048 -3 15 C-3.66 15 -4.32 15 -5 15 C-1.92482916 4.44191344 -1.92482916 4.44191344 0 0 Z " fill="#D7F6F5" transform="translate(429,437)"/>
<path d="M0 0 C0 4.35058939 -2.21820976 6.77981875 -5 10 C-7.0625 11.3125 -7.0625 11.3125 -9 12 C-10.33773833 12.65778293 -11.6716746 13.32341014 -13 14 C-8.88380164 9.08064098 -4.59589638 4.47352044 0 0 Z " fill="#F0FDFC" transform="translate(362,339)"/>
<path d="M0 0 C0.99 0.33 1.98 0.66 3 1 C-0.3 4.3 -3.6 7.6 -7 11 C-7.33 9.68 -7.66 8.36 -8 7 C-6.74057614 5.80040625 -5.46704714 4.61560557 -4.1875 3.4375 C-3.12595703 2.44556641 -3.12595703 2.44556641 -2.04296875 1.43359375 C-1.36878906 0.96050781 -0.69460938 0.48742187 0 0 Z " fill="#C5EDEB" transform="translate(326,295)"/>
<path d="M0 0 C1.55719518 4.67158554 -0.54479824 7.90337759 -2.375 12.3125 C-4 15 -4 15 -6.1875 15.875 C-7.0846875 15.936875 -7.0846875 15.936875 -8 16 C-6.125 11.25 -6.125 11.25 -5 9 C-4.34 9 -3.68 9 -3 9 C-2.814375 7.88625 -2.814375 7.88625 -2.625 6.75 C-2.04513299 4.19858515 -1.26291261 2.2732427 0 0 Z " fill="#3A9B95" transform="translate(417,458)"/>
<path d="M0 0 C2.58699494 1.14977553 4.38388379 2.32770568 6.5625 4.1875 C7.366875 4.785625 8.17125 5.38375 9 6 C9.99 5.67 10.98 5.34 12 5 C12 6.98 12 8.96 12 11 C8.57472113 9.52651292 6.35044942 7.59092154 3.75 4.9375 C3.04359375 4.22464844 2.3371875 3.51179688 1.609375 2.77734375 C0 1 0 1 0 0 Z " fill="#338781" transform="translate(434,271)"/>
<path d="M0 0 C0.66 0 1.32 0 2 0 C2.33 0.99 2.66 1.98 3 3 C0.69 5.31 -1.62 7.62 -4 10 C-4.66 9.67 -5.32 9.34 -6 9 C-4.79618552 6.50638429 -3.54571278 4.31856917 -2 2 C-1.34 2 -0.68 2 0 2 C0 1.34 0 0.68 0 0 Z " fill="#23384B" transform="translate(339,257)"/>
<path d="M0 0 C0 0.66 0 1.32 0 2 C0.99 2.33 1.98 2.66 3 3 C3.33 3.66 3.66 4.32 4 5 C4.99 5.33 5.98 5.66 7 6 C7.6875 8.0625 7.6875 8.0625 8 10 C7.01 10 6.02 10 5 10 C3.5703125 8.50390625 3.5703125 8.50390625 2.125 6.5625 C-0.30048726 3.55048216 -0.30048726 3.55048216 -3.875 2.0625 C-4.57625 2.041875 -5.2775 2.02125 -6 2 C-3 0 -3 0 0 0 Z " fill="#DDFAF9" transform="translate(206,325)"/>
<path d="M0 0 C0.66 0 1.32 0 2 0 C4.44064587 5.64399358 4.19289099 10.97751478 4 17 C1.94862685 13.51783717 1.43181408 10.22724343 0.875 6.25 C0.70742188 5.07953125 0.53984375 3.9090625 0.3671875 2.703125 C0.24601562 1.81109375 0.12484375 0.9190625 0 0 Z " fill="#D3F8F7" transform="translate(433,322)"/>
<path d="M0 0 C4.24822374 0.47202486 6.19989709 2.96655518 9 6 C8.67 6.99 8.34 7.98 8 9 C6.84775972 8.07038578 5.70340824 7.1309875 4.5625 6.1875 C3.60537109 5.40439453 3.60537109 5.40439453 2.62890625 4.60546875 C1 3 1 3 0 0 Z " fill="#44A199" transform="translate(385,220)"/>
<path d="M0 0 C1.65 0 3.3 0 5 0 C5 1.32 5 2.64 5 4 C6.32 4.33 7.64 4.66 9 5 C9.33 6.65 9.66 8.3 10 10 C2.51708428 3.84965831 2.51708428 3.84965831 0 0 Z " fill="#C8F0EE" transform="translate(238,361)"/>
<path d="M0 0 C0.66 0.99 1.32 1.98 2 3 C-1.17320782 6.53586014 -3.16743695 8.58578031 -8 9 C-7.04270084 7.87411986 -6.08412105 6.7493285 -5.125 5.625 C-4.59132813 4.99851562 -4.05765625 4.37203125 -3.5078125 3.7265625 C-2.38567993 2.44163349 -1.20628025 1.20628025 0 0 Z " fill="#449C96" transform="translate(349,465)"/>
<path d="M0 0 C0 0.33 0 0.66 0 1 C-0.6290625 1.04898437 -1.258125 1.09796875 -1.90625 1.1484375 C-6.23249796 1.52633265 -10.31585201 1.99532548 -14.5 3.1875 C-15.655 3.455625 -16.81 3.72375 -18 4 C-18.66 3.34 -19.32 2.68 -20 2 C-13.24112575 -0.07965362 -7.04440079 -0.21133202 0 0 Z " fill="#41505D" transform="translate(989,355)"/>
<path d="M0 0 C0.99 0 1.98 0 3 0 C3.33 1.65 3.66 3.3 4 5 C4.66 5 5.32 5 6 5 C6.33 8.3 6.66 11.6 7 15 C4.99615009 11.99422513 3.73880258 9.15022736 2.375 5.8125 C1.92898438 4.72582031 1.48296875 3.63914062 1.0234375 2.51953125 C0.68570312 1.68808594 0.34796875 0.85664063 0 0 Z " fill="#D7F8F8" transform="translate(420,289)"/>
<path d="M0 0 C2.31 0 4.62 0 7 0 C6.67 4.29 6.34 8.58 6 13 C5.67 13 5.34 13 5 13 C4.80522261 11.37585622 4.61940542 9.75063577 4.4375 8.125 C4.33308594 7.22007812 4.22867187 6.31515625 4.12109375 5.3828125 C4 3 4 3 5 1 C3.35 1 1.7 1 0 1 C0 0.67 0 0.34 0 0 Z " fill="#58A19C" transform="translate(450,202)"/>
<path d="M0 0 C2.37948772 0.17625835 3.70225849 0.69719773 5.37890625 2.40234375 C6.62115486 3.90649092 7.81376056 5.45129851 9 7 C8.01 7 7.02 7 6 7 C6 6.34 6 5.68 6 5 C5.01 5 4.02 5 3 5 C3 4.34 3 3.68 3 3 C1.35 3 -0.3 3 -2 3 C-1.34 2.01 -0.68 1.02 0 0 Z " fill="#4B9B94" transform="translate(202,327)"/>
<path d="M0 0 C0.66 0.99 1.32 1.98 2 3 C0.35 5.31 -1.3 7.62 -3 10 C-3.66 9.67 -4.32 9.34 -5 9 C-5 8.01 -5 7.02 -5 6 C-4.34 6 -3.68 6 -3 6 C-2.690625 5.195625 -2.38125 4.39125 -2.0625 3.5625 C-1 1 -1 1 0 0 Z " fill="#263A4F" transform="translate(155,291)"/>
<path d="M0 0 C-1.65 1.98 -3.3 3.96 -5 6 C-5.99 5.67 -6.98 5.34 -8 5 C-7.67 4.34 -7.34 3.68 -7 3 C-7.66 2.34 -8.32 1.68 -9 1 C-6.04335481 -0.4783226 -3.25770263 -0.06032783 0 0 Z " fill="#2A928C" transform="translate(391,212)"/>
<path d="M0 0 C2.64 0.33 5.28 0.66 8 1 C8 1.66 8 2.32 8 3 C9.32 3.33 10.64 3.66 12 4 C8.69564916 5.12377697 6.9493138 4.89554742 3.75 3.5625 C3.04359375 3.27503906 2.3371875 2.98757813 1.609375 2.69140625 C1.07828125 2.46324219 0.5471875 2.23507812 0 2 C0 1.34 0 0.68 0 0 Z " fill="#2B3E51" transform="translate(193,548)"/>
<path d="M0 0 C1.32 0 2.64 0 4 0 C2.64978174 4.41889613 0.73884332 6.34345343 -3 9 C-2.01 6.03 -1.02 3.06 0 0 Z " fill="#1C3044" transform="translate(787,380)"/>
<path d="M0 0 C1.98 0 3.96 0 6 0 C5.01 0.66 4.02 1.32 3 2 C2.49605344 3.93398926 2.49605344 3.93398926 2.4375 6.0625 C2.2209375 8.0115625 2.2209375 8.0115625 2 10 C1.01 10.495 1.01 10.495 0 11 C0 7.37 0 3.74 0 0 Z " fill="#1F3345" transform="translate(818,335)"/>
<path d="M0 0 C1.98 0 3.96 0 6 0 C5.34 2.31 4.68 4.62 4 7 C3.34 7 2.68 7 2 7 C1.34 4.69 0.68 2.38 0 0 Z " fill="#8794A1" transform="translate(1349,729)"/>
<path d="M0 0 C-3.19990508 2.74277578 -6.00499382 4.6302836 -10 6 C-9.875 4.1875 -9.875 4.1875 -9 2 C-3.81203008 -1.27067669 -3.81203008 -1.27067669 0 0 Z " fill="#D7F9F8" transform="translate(321,488)"/>
<path d="M0 0 C0 3.19633438 -0.33810135 4.34096216 -2 7 C-3.9375 8.8125 -3.9375 8.8125 -6 10 C-6.99 9.67 -7.98 9.34 -9 9 C-6.03 6.03 -3.06 3.06 0 0 Z " fill="#D2F4F2" transform="translate(283,416)"/>
<path d="M0 0 C0 0.33 0 0.66 0 1 C-5.87883349 3.61281488 -11.70731728 3.18328202 -18 3 C-18 2.67 -18 2.34 -18 2 C-11.88019467 0.59545452 -6.28260706 -0.23268915 0 0 Z " fill="#E2FCFC" transform="translate(420,205)"/>
<path d="M0 0 C-1.125 1.5 -1.125 1.5 -3 3 C-6.0625 3.3125 -6.0625 3.3125 -9 3 C-9.66 2.34 -10.32 1.68 -11 1 C-3.375 -1.125 -3.375 -1.125 0 0 Z " fill="#449D98" transform="translate(298,501)"/>
<path d="M0 0 C0 0.66 0 1.32 0 2 C-1.24176695 2.70226141 -2.49385599 3.38629109 -3.75 4.0625 C-4.79414063 4.63677734 -4.79414063 4.63677734 -5.859375 5.22265625 C-8.36140628 6.1312406 -9.5332355 5.88336837 -12 5 C-10.56705502 4.15885829 -9.12845595 3.32734313 -7.6875 2.5 C-6.88699219 2.0359375 -6.08648437 1.571875 -5.26171875 1.09375 C-3 0 -3 0 0 0 Z " fill="#358E88" transform="translate(319,491)"/>
<path d="M0 0 C2.6855594 2.6855594 3.06049974 5.37621328 4 9 C3.01 9 2.02 9 1 9 C0.01 6.69 -0.98 4.38 -2 2 C-1.34 2 -0.68 2 0 2 C0 1.34 0 0.68 0 0 Z " fill="#273B4F" transform="translate(572,412)"/>
<path d="M0 0 C5 7.5 5 7.5 5 12 C1.14227382 9.42818254 0.43573638 7.30720915 -1 3 C-0.67 2.01 -0.34 1.02 0 0 Z " fill="#2A3F52" transform="translate(587,401)"/>
<path d="M0 0 C-1.39332574 3.36720387 -2.9789286 4.9859524 -6 7 C-6.33 6.01 -6.66 5.02 -7 4 C-3.375 0 -3.375 0 0 0 Z " fill="#243A50" transform="translate(1166,368)"/>
<path d="M0 0 C0.99 0.33 1.98 0.66 3 1 C1.90716423 2.03295436 0.80029421 3.05107835 -0.3125 4.0625 C-0.92738281 4.63097656 -1.54226563 5.19945312 -2.17578125 5.78515625 C-2.77777344 6.18605469 -3.37976562 6.58695312 -4 7 C-4.99 6.67 -5.98 6.34 -7 6 C-5.90716423 4.96704564 -4.80029421 3.94892165 -3.6875 2.9375 C-3.07261719 2.36902344 -2.45773437 1.80054688 -1.82421875 1.21484375 C-0.92123047 0.61349609 -0.92123047 0.61349609 0 0 Z " fill="#233446" transform="translate(1313,359)"/>
<path d="M0 0 C-0.1875 1.875 -0.1875 1.875 -1 4 C-3.5 5.125 -3.5 5.125 -6 6 C-6.33 6.66 -6.66 7.32 -7 8 C-7.66 8 -8.32 8 -9 8 C-7.47364599 4.11473526 -4.49771687 0 0 0 Z " fill="#E0F9F7" transform="translate(200,328)"/>
<path d="M0 0 C1.31571603 0.2547514 2.62760376 0.52934141 3.9375 0.8125 C4.66839844 0.96332031 5.39929688 1.11414063 6.15234375 1.26953125 C6.76207031 1.51058594 7.37179687 1.75164062 8 2 C8.33 2.99 8.66 3.98 9 5 C6.36 4.67 3.72 4.34 1 4 C0.67 2.68 0.34 1.36 0 0 Z " fill="#21374D" transform="translate(305,193)"/>
<path d="M0 0 C0.33 0.66 0.66 1.32 1 2 C1.99 2 2.98 2 4 2 C4.99 3.98 5.98 5.96 7 8 C4 8 4 8 1.8125 6.25 C0 4 0 4 0 0 Z " fill="#25394F" transform="translate(134,508)"/>
<path d="M0 0 C-0.33 0.66 -0.66 1.32 -1 2 C-3.72265625 2.4140625 -3.72265625 2.4140625 -7.0625 2.625 C-8.16722656 2.69976562 -9.27195312 2.77453125 -10.41015625 2.8515625 C-11.26480469 2.90054687 -12.11945313 2.94953125 -13 3 C-8.38322418 -0.07785055 -5.48548106 -1.5672803 0 0 Z " fill="#429C95" transform="translate(310,497)"/>
<path d="M0 0 C0.99 0.33 1.98 0.66 3 1 C2.75 2.875 2.75 2.875 2 5 C0.0625 6.1875 0.0625 6.1875 -2 7 C-2.99 7.495 -2.99 7.495 -4 8 C-3.40072174 4.64404172 -2.15377564 2.62198774 0 0 Z " fill="#192E43" transform="translate(118,253)"/>
<path d="M0 0 C1.15518918 0.90484792 2.29885406 1.8244206 3.4375 2.75 C4.07558594 3.26046875 4.71367188 3.7709375 5.37109375 4.296875 C7.18810554 6.19667629 7.60423197 7.43586908 8 10 C1.42857143 5 1.42857143 5 0 0 Z " fill="#223749" transform="translate(119,494)"/>
<path d="M0 0 C0.99 0 1.98 0 3 0 C1.50902342 3.7952131 -0.75700849 5.61042731 -4 8 C-4 7.01 -4 6.02 -4 5 C-3.34 5 -2.68 5 -2 5 C-1.7834375 4.0409375 -1.7834375 4.0409375 -1.5625 3.0625 C-1 1 -1 1 0 0 Z " fill="#C7EFEE" transform="translate(313,307)"/>
<path d="M0 0 C-0.3125 1.875 -0.3125 1.875 -1 4 C-1.99 4.66 -2.98 5.32 -4 6 C-4.99 5.34 -5.98 4.68 -7 4 C-2.25 0 -2.25 0 0 0 Z " fill="#DBF4F3" transform="translate(339,283)"/>
<path d="M0 0 C3.465 1.98 3.465 1.98 7 4 C6.67 4.66 6.34 5.32 6 6 C4.02 5.34 2.04 4.68 0 4 C0 2.68 0 1.36 0 0 Z " fill="#293F50" transform="translate(349,212)"/>
<path d="M0 0 C0.99 0.33 1.98 0.66 3 1 C0.69 3.31 -1.62 5.62 -4 8 C-4.33 6.68 -4.66 5.36 -5 4 C-4.01 4 -3.02 4 -2 4 C-1.34 2.68 -0.68 1.36 0 0 Z " fill="#BDECE9" transform="translate(195,332)"/>
<path d="M0 0 C2.08954032 4.17908064 2.16552619 4.80410573 1 9 C0.01 9 -0.98 9 -2 9 C-1.34 6.03 -0.68 3.06 0 0 Z " fill="#2D4154" transform="translate(84,315)"/>
<path d="M0 0 C0.99 0.33 1.98 0.66 3 1 C2.6875 3.375 2.6875 3.375 2 6 C1.01 6.66 0.02 7.32 -1 8 C-2.2077558 4.37673261 -1.54311128 3.35853631 0 0 Z " fill="#263C4F" transform="translate(90,299)"/>
<path d="M0 0 C0.99 0.33 1.98 0.66 3 1 C3 1.66 3 2.32 3 3 C2.34 3 1.68 3 1 3 C1 3.66 1 4.32 1 5 C-0.98 5.33 -2.96 5.66 -5 6 C-3.35 4.02 -1.7 2.04 0 0 Z " fill="#48A19A" transform="translate(344,279)"/>
<path d="M0 0 C0.66 0 1.32 0 2 0 C2.33 0.99 2.66 1.98 3 3 C1.35 4.32 -0.3 5.64 -2 7 C-2.33 6.01 -2.66 5.02 -3 4 C-2.67 3.34 -2.34 2.68 -2 2 C-1.34 2 -0.68 2 0 2 C0 1.34 0 0.68 0 0 Z " fill="#273C51" transform="translate(355,241)"/>
<path d="M0 0 C0.66 0.33 1.32 0.66 2 1 C1.01 1.33 0.02 1.66 -1 2 C-1.73323796 4.01508358 -1.73323796 4.01508358 -2 6 C-3.32 6.33 -4.64 6.66 -6 7 C-6 6.01 -6 5.02 -6 4 C-5.01 3.67 -4.02 3.34 -3 3 C-1.33289654 1.50014391 -1.33289654 1.50014391 0 0 Z " fill="#E7FDFD" transform="translate(326,481)"/>
<path d="M0 0 C1.98 0 3.96 0 6 0 C5.67 0.66 5.34 1.32 5 2 C4.34 2 3.68 2 3 2 C2.67 3.32 2.34 4.64 2 6 C1.34 5.34 0.68 4.68 0 4 C0 2.68 0 1.36 0 0 Z " fill="#2E4052" transform="translate(661,411)"/>
<path d="M0 0 C2 2 2 2 2 5 C1.34 5 0.68 5 0 5 C-0.33 5.99 -0.66 6.98 -1 8 C-1.99 7.34 -2.98 6.68 -4 6 C-2.68 4.02 -1.36 2.04 0 0 Z " fill="#2E4157" transform="translate(625,406)"/>
<path d="M0 0 C0.33 0.99 0.66 1.98 1 3 C-0.65 4.65 -2.3 6.3 -4 8 C-4.99 7.67 -5.98 7.34 -7 7 C-6.01 6.67 -5.02 6.34 -4 6 C-2.90833725 4.06669397 -2.90833725 4.06669397 -2 2 C-1.34 1.34 -0.68 0.68 0 0 Z " fill="#172D43" transform="translate(1149,384)"/>
<path d="M0 0 C0 0.99 0 1.98 0 3 C-2.5 5.1875 -2.5 5.1875 -5 7 C-3.70700306 4.11562221 -2.34058637 2.12780579 0 0 Z M-6 7 C-5.34 7.99 -4.68 8.98 -4 10 C-4.99 10.33 -5.98 10.66 -7 11 C-7 8 -7 8 -6 7 Z " fill="#D4DFE5" transform="translate(788,385)"/>
<path d="M0 0 C0.99 0.33 1.98 0.66 3 1 C1.35 2.65 -0.3 4.3 -2 6 C-2.99 5.67 -3.98 5.34 -5 5 C-3.35 3.35 -1.7 1.7 0 0 Z " fill="#283A4D" transform="translate(1170,360)"/>
<path d="M0 0 C0.66 0 1.32 0 2 0 C2.19622241 4.21878192 1.80230168 7.17010894 0 11 C-0.33 11 -0.66 11 -1 11 C-1.125 3.375 -1.125 3.375 0 0 Z " fill="#283C51" transform="translate(139,317)"/>
<path d="M0 0 C2.04219706 1.69179328 2.91793306 2.63727666 3.51171875 5.26171875 C3.56972656 6.06222656 3.62773437 6.86273438 3.6875 7.6875 C3.75324219 8.49574219 3.81898438 9.30398438 3.88671875 10.13671875 C3.92410156 10.75160156 3.96148437 11.36648438 4 12 C3.34 12 2.68 12 2 12 C0.86235649 7.73383684 0 4.43513689 0 0 Z " fill="#38938E" transform="translate(425,303)"/>
<path d="M0 0 C0.66 0.33 1.32 0.66 2 1 C-0.31 3.64 -2.62 6.28 -5 9 C-5.66 8.01 -6.32 7.02 -7 6 C-4.69 4.02 -2.38 2.04 0 0 Z " fill="#D4F8F7" transform="translate(356,265)"/>
<path d="M0 0 C3.96 0 7.92 0 12 0 C9.57479454 2.42520546 8.37932259 2.68564441 5 3 C2.1875 2.0625 2.1875 2.0625 0 1 C0 0.67 0 0.34 0 0 Z " fill="#2B968D" transform="translate(434,205)"/>
<path d="M0 0 C0.66 0.99 1.32 1.98 2 3 C-0.31 4.98 -2.62 6.96 -5 9 C-3.44455189 5.88910379 -1.80979645 2.96148509 0 0 Z " fill="#233549" transform="translate(800,367)"/>
<path d="M0 0 C0 3 0 3 -2.375 5.6875 C-5 8 -5 8 -7 8 C-5.98823563 4.59679258 -5.35156418 3.24274669 -2.375 1.1875 C-1.59125 0.795625 -0.8075 0.40375 0 0 Z " fill="#273B4F" transform="translate(672,363)"/>
<path d="M0 0 C1.65 0 3.3 0 5 0 C0.25 4.875 0.25 4.875 -2 6 C-1.34 4.02 -0.68 2.04 0 0 Z " fill="#E3EBF0" transform="translate(578,360)"/>
<path d="M0 0 C0.99 0.33 1.98 0.66 3 1 C0.6875 3.0625 0.6875 3.0625 -2 5 C-2.99 4.67 -3.98 4.34 -5 4 C-2.6875 1.9375 -2.6875 1.9375 0 0 Z " fill="#15293F" transform="translate(585,359)"/>
<path d="M0 0 C1.14926266 0.95421808 2.29430541 1.91352045 3.4375 2.875 C4.07558594 3.40867187 4.71367187 3.94234375 5.37109375 4.4921875 C7 6 7 6 8 8 C6.68 7.67 5.36 7.34 4 7 C4 6.34 4 5.68 4 5 C3.34 5 2.68 5 2 5 C2 4.34 2 3.68 2 3 C1.34 3 0.68 3 0 3 C0 2.01 0 1.02 0 0 Z " fill="#2D8A83" transform="translate(216,340)"/>
<path d="M0 0 C0 3.55955169 -0.89341295 4.27899173 -3 7 C-3 7.66 -3 8.32 -3 9 C-4.32 8.34 -5.64 7.68 -7 7 C-4.69 4.69 -2.38 2.38 0 0 Z " fill="#2BA29A" transform="translate(342,284)"/>
<path d="M0 0 C-2.55068845 2.35448165 -3.71017358 2.98327924 -7.25 3.1875 C-8.1575 3.125625 -9.065 3.06375 -10 3 C-10 2.34 -10 1.68 -10 1 C-6.61981469 -0.04005702 -3.5219721 -0.08004482 0 0 Z " fill="#DFFBFB" transform="translate(391,209)"/>
<path d="M0 0 C-0.33 0.66 -0.66 1.32 -1 2 C-3.28515625 2.6328125 -3.28515625 2.6328125 -6.0625 3.125 C-6.98160156 3.29257812 -7.90070313 3.46015625 -8.84765625 3.6328125 C-9.91306641 3.81457031 -9.91306641 3.81457031 -11 4 C-8.94006922 -0.11986157 -4.11800376 -1.37266792 0 0 Z " fill="#EBFEFD" transform="translate(312,492)"/>
<path d="M0 0 C1.875 0.25 1.875 0.25 4 1 C5.25 3.0625 5.25 3.0625 6 5 C5.01 5 4.02 5 3 5 C1.3125 2.5 1.3125 2.5 0 0 Z " fill="#3E968F" transform="translate(228,425)"/>
<path d="M0 0 C1.14926266 0.95421808 2.29430541 1.91352045 3.4375 2.875 C4.07558594 3.40867187 4.71367187 3.94234375 5.37109375 4.4921875 C7 6 7 6 8 8 C5.6875 7.8125 5.6875 7.8125 3 7 C0 2.96551724 0 2.96551724 0 0 Z " fill="#318D86" transform="translate(235,359)"/>
<path d="M0 0 C0.66 0.33 1.32 0.66 2 1 C2.625 3.5625 2.625 3.5625 3 6 C1.02 5.34 -0.96 4.68 -3 4 C-2.01 2.68 -1.02 1.36 0 0 Z " fill="#B9EDEB" transform="translate(374,324)"/>
<path d="M0 0 C0.33 0.66 0.66 1.32 1 2 C0.67 2.66 0.34 3.32 0 4 C-0.66 4 -1.32 4 -2 4 C-2.33 4.99 -2.66 5.98 -3 7 C-3.99 7.33 -4.98 7.66 -6 8 C-4.55746343 4.63408134 -2.66735273 2.48952921 0 0 Z " fill="#1D948C" transform="translate(387,240)"/>
<path d="M0 0 C0.99 0.33 1.98 0.66 3 1 C1.37660195 2.70884005 -0.29319053 4.37446717 -2 6 C-2.66 6 -3.32 6 -4 6 C-4 5.01 -4 4.02 -4 3 C-2.1875 1.25 -2.1875 1.25 0 0 Z " fill="#1C3246" transform="translate(144,227)"/>
<path d="M0 0 C2.31 0.33 4.62 0.66 7 1 C6.01 2.485 6.01 2.485 5 4 C2.525 3.01 2.525 3.01 0 2 C0 1.34 0 0.68 0 0 Z " fill="#263D51" transform="translate(292,190)"/>
<path d="M0 0 C1.98 1.65 3.96 3.3 6 5 C4.68 5.33 3.36 5.66 2 6 C2 5.34 2 4.68 2 4 C1.34 4 0.68 4 0 4 C0 2.68 0 1.36 0 0 Z " fill="#C6ECEB" transform="translate(221,419)"/>
<path d="M0 0 C1.32 0 2.64 0 4 0 C4.66 1.65 5.32 3.3 6 5 C4.125 4.75 4.125 4.75 2 4 C0.75 1.9375 0.75 1.9375 0 0 Z " fill="#24384E" transform="translate(1151,407)"/>
<path d="M0 0 C0.66 0.33 1.32 0.66 2 1 C0.515 3.475 0.515 3.475 -1 6 C-1.99 5.67 -2.98 5.34 -4 5 C-3 2 -3 2 0 0 Z " fill="#182C40" transform="translate(1055,362)"/>
<path d="M0 0 C0.99 0.33 1.98 0.66 3 1 C2.67 1.99 2.34 2.98 2 4 C1.01 4.33 0.02 4.66 -1 5 C-1.66 4.34 -2.32 3.68 -3 3 C-2.01 2.01 -1.02 1.02 0 0 Z " fill="#273A4E" transform="translate(579,363)"/>
<path d="M0 0 C-0.375 1.9375 -0.375 1.9375 -1 4 C-1.99 4.495 -1.99 4.495 -3 5 C-3.66 4.67 -4.32 4.34 -5 4 C-4.67 3.01 -4.34 2.02 -4 1 C-2 0 -2 0 0 0 Z " fill="#E1F9F7" transform="translate(275,347)"/>
<path d="M0 0 C0.33 0.99 0.66 1.98 1 3 C1.66 3 2.32 3 3 3 C3.33 3.99 3.66 4.98 4 6 C3.01 6.495 3.01 6.495 2 7 C0.04783565 5.04783565 -0.84826645 3.46800047 -2 1 C-1.34 0.67 -0.68 0.34 0 0 Z " fill="#243C53" transform="translate(319,253)"/>
<path d="M0 0 C2.97 0.33 5.94 0.66 9 1 C9.33 1.99 9.66 2.98 10 4 C6.7 3.01 3.4 2.02 0 1 C0 0.67 0 0.34 0 0 Z " fill="#2F4153" transform="translate(295,247)"/>
<path d="M0 0 C0.75 1.75 0.75 1.75 1 4 C-0.9375 6.25 -0.9375 6.25 -3 8 C-3.33 7.01 -3.66 6.02 -4 5 C-2.0625 2.3125 -2.0625 2.3125 0 0 Z " fill="#409E98" transform="translate(393,229)"/>
<path d="M0 0 C2.31 0 4.62 0 7 0 C5.515 1.98 5.515 1.98 4 4 C2.68 3.34 1.36 2.68 0 2 C0 1.34 0 0.68 0 0 Z " fill="#6EA49F" transform="translate(377,212)"/>
</svg>
